{
	"asset":{
		"version":"2.0",
		"generator":"Houdini GLTF 2.0 Exporter"
	},
	"accessors":[
		{
			"bufferView":0,
			"componentType":5125,
			"count":104976,
			"type":"SCALAR",
			"min":[0
			],
			"max":[20573
			]
		},
		{
			"bufferView":1,
			"componentType":5126,
			"count":20574,
			"type":"VEC3",
			"min":[-3.57999992,0.00100000203,3.36827612
			],
			"max":[3.57999992,0.594999969,10.0799999
			]
		},
		{
			"bufferView":2,
			"componentType":5126,
			"count":20574,
			"type":"VEC3",
			"min":[-1,-1,-1
			],
			"max":[1,1,1
			]
		},
		{
			"bufferView":3,
			"componentType":5126,
			"count":20574,
			"type":"VEC4",
			"min":[0,0,0,1
			],
			"max":[0,0,0,1
			]
		}
	],
	"buffers":[
		{
			"uri":"stage_2_columns_data.bin",
			"byteLength":1242864,
			"name":"main_buffer"
		}
	],
	"bufferViews":[
		{
			"buffer":0,
			"byteLength":419904,
			"target":34963
		},
		{
			"buffer":0,
			"byteOffset":419904,
			"byteLength":246888,
			"target":34962
		},
		{
			"buffer":0,
			"byteOffset":666792,
			"byteLength":246888,
			"target":34962
		},
		{
			"buffer":0,
			"byteOffset":913680,
			"byteLength":329184,
			"target":34962
		}
	],
	"nodes":[
		{
			"name":"STAGE_2",
			"mesh":0
		}
	],
	"meshes":[
		{
			"primitives":[
				{
					"attributes":{
						"TANGENT":3,
						"POSITION":1,
						"NORMAL":2
					},
					"indices":0,
					"material":0
				}
			],
			"name":"tangent1"
		}
	],
	"materials":[
		{
			"name":"COLUMN",
			"pbrMetallicRoughness":{
			}
		}
	],
	"scenes":[
		{
			"nodes":[0
			]
		}
	],
	"scene":0
}
