{
	"asset":{
		"version":"2.0",
		"generator":"Houdini GLTF 2.0 Exporter"
	},
	"accessors":[
		{
			"bufferView":0,
			"componentType":5125,
			"count":395700,
			"type":"SCALAR",
			"min":[0
			],
			"max":[207515
			]
		},
		{
			"bufferView":1,
			"componentType":5126,
			"count":207516,
			"type":"VEC3",
			"min":[-8.7997427,0,-14.4665375
			],
			"max":[11.4117184,2.86999989,15.0868702
			]
		},
		{
			"bufferView":2,
			"componentType":5126,
			"count":207516,
			"type":"SCALAR",
			"min":[-73.9702759
			],
			"max":[-73.9351959
			]
		},
		{
			"bufferView":3,
			"componentType":5126,
			"count":207516,
			"type":"SCALAR",
			"min":[40.7536926
			],
			"max":[40.771862
			]
		},
		{
			"bufferView":4,
			"componentType":5126,
			"count":207516,
			"type":"VEC3",
			"min":[-1,-1,-1
			],
			"max":[1,1,1
			]
		},
		{
			"bufferView":5,
			"componentType":5125,
			"count":207516,
			"type":"SCALAR",
			"min":[0
			],
			"max":[0
			]
		},
		{
			"bufferView":6,
			"componentType":5125,
			"count":207516,
			"type":"SCALAR",
			"min":[1
			],
			"max":[1
			]
		},
		{
			"bufferView":7,
			"componentType":5126,
			"count":207516,
			"type":"SCALAR",
			"min":[1.39999998
			],
			"max":[287
			]
		},
		{
			"bufferView":8,
			"componentType":5126,
			"count":207516,
			"type":"SCALAR",
			"min":[2837.81738
			],
			"max":[2837.81738
			]
		},
		{
			"bufferView":9,
			"componentType":5126,
			"count":207516,
			"type":"SCALAR",
			"min":[40.7544098
			],
			"max":[40.7544098
			]
		},
		{
			"bufferView":10,
			"componentType":5126,
			"count":207516,
			"type":"SCALAR",
			"min":[-73.9697189
			],
			"max":[-73.9697189
			]
		},
		{
			"bufferView":11,
			"componentType":5126,
			"count":207516,
			"type":"SCALAR",
			"min":[40.769619
			],
			"max":[40.769619
			]
		},
		{
			"bufferView":12,
			"componentType":5126,
			"count":207516,
			"type":"SCALAR",
			"min":[-73.9360428
			],
			"max":[-73.9360428
			]
		},
		{
			"bufferView":13,
			"componentType":5126,
			"count":207516,
			"type":"SCALAR",
			"min":[1691.80579
			],
			"max":[1691.80579
			]
		}
	],
	"buffers":[
		{
			"uri":"city_road_data.bin",
			"byteLength":15693888,
			"name":"main_buffer"
		}
	],
	"bufferViews":[
		{
			"buffer":0,
			"byteLength":1582800,
			"target":34963
		},
		{
			"buffer":0,
			"byteOffset":1582800,
			"byteLength":2490192,
			"target":34962
		},
		{
			"buffer":0,
			"byteOffset":4072992,
			"byteLength":830064,
			"target":34962
		},
		{
			"buffer":0,
			"byteOffset":4903056,
			"byteLength":830064,
			"target":34962
		},
		{
			"buffer":0,
			"byteOffset":5733120,
			"byteLength":2490192,
			"target":34962
		},
		{
			"buffer":0,
			"byteOffset":8223312,
			"byteLength":830064,
			"target":34962
		},
		{
			"buffer":0,
			"byteOffset":9053376,
			"byteLength":830064,
			"target":34962
		},
		{
			"buffer":0,
			"byteOffset":9883440,
			"byteLength":830064,
			"target":34962
		},
		{
			"buffer":0,
			"byteOffset":10713504,
			"byteLength":830064,
			"target":34962
		},
		{
			"buffer":0,
			"byteOffset":11543568,
			"byteLength":830064,
			"target":34962
		},
		{
			"buffer":0,
			"byteOffset":12373632,
			"byteLength":830064,
			"target":34962
		},
		{
			"buffer":0,
			"byteOffset":13203696,
			"byteLength":830064,
			"target":34962
		},
		{
			"buffer":0,
			"byteOffset":14033760,
			"byteLength":830064,
			"target":34962
		},
		{
			"buffer":0,
			"byteOffset":14863824,
			"byteLength":830064,
			"target":34962
		}
	],
	"nodes":[
		{
			"name":"CITY_PATH",
			"mesh":0
		}
	],
	"meshes":[
		{
			"primitives":[
				{
					"attributes":{
						"_max_lon":12,
						"_max_lat":11,
						"_min_lat":9,
						"_hou_way":6,
						"_scale":7,
						"_hou_node":5,
						"_map_length":13,
						"NORMAL":4,
						"_latitude":3,
						"_longitude":2,
						"_min_lon":10,
						"_map_height":8,
						"POSITION":1
					},
					"indices":0
				}
			],
			"name":"pack1"
		}
	],
	"scenes":[
		{
			"nodes":[0
			]
		}
	],
	"scene":0
}
