{
	"asset":{
		"version":"2.0",
		"generator":"Houdini GLTF 2.0 Exporter"
	},
	"animations":[
		{
			"channels":[
				{
					"target":{
						"node":0,
						"path":"weights"
					},
					"sampler":0
				}
			],
			"samplers":[
				{
					"input":65,
					"interpolation":"LINEAR",
					"output":64
				}
			]
		}
	],
	"accessors":[
		{
			"bufferView":0,
			"componentType":5125,
			"count":118080,
			"type":"SCALAR",
			"min":[0
			],
			"max":[39359
			]
		},
		{
			"bufferView":1,
			"componentType":5126,
			"count":39360,
			"type":"VEC3",
			"min":[0.000961096026,-0.101351827,-0.103224859
			],
			"max":[0.0294545926,0.407119095,0.106775135
			]
		},
		{
			"bufferView":2,
			"componentType":5126,
			"count":39360,
			"type":"VEC3",
			"min":[-1,-0.866025448,-0.956155479
			],
			"max":[1,0.866025448,0.956155539
			]
		},
		{
			"bufferView":3,
			"componentType":5126,
			"count":39360,
			"type":"VEC4",
			"min":[-0.0386217535,-1,-0.0223525669,1
			],
			"max":[0.956201613,1,0.292561948,1
			]
		},
		{
			"bufferView":4,
			"componentType":5126,
			"count":39360,
			"type":"VEC2",
			"min":[0,5.96046448e-08
			],
			"max":[1,1
			]
		},
		{
			"bufferView":5,
			"componentType":5126,
			"count":39360,
			"type":"VEC3",
			"min":[-0.116824985,-0.105171174,-0.215337962
			],
			"max":[0.116811097,0.123470455,0.212265119
			]
		},
		{
			"bufferView":6,
			"componentType":5126,
			"count":39360,
			"type":"VEC3",
			"min":[-0.118690237,-0.0972751975,-0.220873296
			],
			"max":[0.118465632,0.134119689,0.214730874
			]
		},
		{
			"bufferView":7,
			"componentType":5126,
			"count":39360,
			"type":"VEC3",
			"min":[-0.120908812,-0.0920392573,-0.227153569
			],
			"max":[0.120360948,0.145939082,0.215961456
			]
		},
		{
			"bufferView":8,
			"componentType":5126,
			"count":39360,
			"type":"VEC3",
			"min":[-0.123479635,-0.0868114084,-0.234252468
			],
			"max":[0.122481383,0.157791555,0.217335105
			]
		},
		{
			"bufferView":9,
			"componentType":5126,
			"count":39360,
			"type":"VEC3",
			"min":[-0.127557158,-0.0815926194,-0.242299676
			],
			"max":[0.125066847,0.17143786,0.217886895
			]
		},
		{
			"bufferView":10,
			"componentType":5126,
			"count":39360,
			"type":"VEC3",
			"min":[-0.131351098,-0.0763817281,-0.251424551
			],
			"max":[0.128394425,0.1857256,0.219115585
			]
		},
		{
			"bufferView":11,
			"componentType":5126,
			"count":39360,
			"type":"VEC3",
			"min":[-0.136438593,-0.0711777806,-0.261961401
			],
			"max":[0.132641375,0.201114804,0.220234007
			]
		},
		{
			"bufferView":12,
			"componentType":5126,
			"count":39360,
			"type":"VEC3",
			"min":[-0.143621802,-0.0659788549,-0.273743302
			],
			"max":[0.137663126,0.217853487,0.220597208
			]
		},
		{
			"bufferView":13,
			"componentType":5126,
			"count":39360,
			"type":"VEC3",
			"min":[-0.150035098,-0.0616762936,-0.286764473
			],
			"max":[0.143645793,0.23709029,0.227054656
			]
		},
		{
			"bufferView":14,
			"componentType":5126,
			"count":39360,
			"type":"VEC3",
			"min":[-0.157953337,-0.0583268404,-0.302142501
			],
			"max":[0.150826752,0.257517993,0.234743148
			]
		},
		{
			"bufferView":15,
			"componentType":5126,
			"count":39360,
			"type":"VEC3",
			"min":[-0.168983266,-0.0549385548,-0.319504797
			],
			"max":[0.159448981,0.280047417,0.243212953
			]
		},
		{
			"bufferView":16,
			"componentType":5126,
			"count":39360,
			"type":"VEC3",
			"min":[-0.179081634,-0.0514810979,-0.338966012
			],
			"max":[0.169731528,0.30410248,0.252881169
			]
		},
		{
			"bufferView":17,
			"componentType":5126,
			"count":39360,
			"type":"VEC3",
			"min":[-0.193679512,-0.0479430854,-0.361104339
			],
			"max":[0.18198514,0.332689285,0.263454318
			]
		},
		{
			"bufferView":18,
			"componentType":5126,
			"count":39360,
			"type":"VEC3",
			"min":[-0.209495485,-0.0443351269,-0.386929303
			],
			"max":[0.196546137,0.363064229,0.275130689
			]
		},
		{
			"bufferView":19,
			"componentType":5126,
			"count":39360,
			"type":"VEC3",
			"min":[-0.228793472,-0.0406776965,-0.4162983
			],
			"max":[0.213807583,0.398676932,0.287601769
			]
		},
		{
			"bufferView":20,
			"componentType":5126,
			"count":39360,
			"type":"VEC3",
			"min":[-0.252043992,-0.0369916558,-0.449702501
			],
			"max":[0.234222651,0.436338842,0.301680326
			]
		},
		{
			"bufferView":21,
			"componentType":5126,
			"count":39360,
			"type":"VEC3",
			"min":[-0.278839231,-0.0332932472,-0.487774402
			],
			"max":[0.2582798,0.480502009,0.317123353
			]
		},
		{
			"bufferView":22,
			"componentType":5126,
			"count":39360,
			"type":"VEC3",
			"min":[-0.309649706,-0.0322069079,-0.531306267
			],
			"max":[0.286501765,0.531561911,0.333562464
			]
		},
		{
			"bufferView":23,
			"componentType":5126,
			"count":39360,
			"type":"VEC3",
			"min":[-0.345059127,-0.0339841321,-0.581251025
			],
			"max":[0.319961697,0.589464068,0.358335316
			]
		},
		{
			"bufferView":24,
			"componentType":5126,
			"count":39360,
			"type":"VEC3",
			"min":[-0.38585189,-0.0357619748,-0.638632417
			],
			"max":[0.359633088,0.655065715,0.396003366
			]
		},
		{
			"bufferView":25,
			"componentType":5126,
			"count":39360,
			"type":"VEC3",
			"min":[-0.432975024,-0.0375402644,-0.704517603
			],
			"max":[0.40593648,0.729174316,0.440053403
			]
		},
		{
			"bufferView":26,
			"componentType":5126,
			"count":39360,
			"type":"VEC3",
			"min":[-0.487209827,-0.0393187776,-0.780108094
			],
			"max":[0.460351437,0.812815607,0.493997335
			]
		},
		{
			"bufferView":27,
			"componentType":5126,
			"count":39360,
			"type":"VEC3",
			"min":[-0.551425517,-0.0410975069,-0.866726875
			],
			"max":[0.528861344,0.907455862,0.55422771
			]
		},
		{
			"bufferView":28,
			"componentType":5126,
			"count":39360,
			"type":"VEC3",
			"min":[-0.62574935,-0.0428768322,-0.965721726
			],
			"max":[0.602841079,1.01467061,0.622492731
			]
		},
		{
			"bufferView":29,
			"componentType":5126,
			"count":39360,
			"type":"VEC3",
			"min":[-0.707373559,-0.0571811199,-1.07851315
			],
			"max":[0.687640727,1.13541961,0.710265934
			]
		},
		{
			"bufferView":30,
			"componentType":5126,
			"count":39360,
			"type":"VEC3",
			"min":[-0.805130482,-0.101366922,-1.20606613
			],
			"max":[0.782719553,1.27090764,0.811425149
			]
		},
		{
			"bufferView":31,
			"componentType":5126,
			"count":39360,
			"type":"VEC3",
			"min":[-0.914321482,-0.155529976,-1.35034597
			],
			"max":[0.893455148,1.42398977,0.928716898
			]
		},
		{
			"bufferView":32,
			"componentType":5126,
			"count":39360,
			"type":"VEC3",
			"min":[-1.03699994,-0.221636057,-1.51289308
			],
			"max":[1.02306402,1.59667754,1.06284988
			]
		},
		{
			"bufferView":33,
			"componentType":5126,
			"count":39360,
			"type":"VEC3",
			"min":[-1.17661202,-0.301258892,-1.69323719
			],
			"max":[1.16977549,1.79087853,1.21328771
			]
		},
		{
			"bufferView":34,
			"componentType":5126,
			"count":39360,
			"type":"VEC3",
			"min":[-1.3477248,-0.395169169,-1.89611483
			],
			"max":[1.3393594,2.00958133,1.3798269
			]
		},
		{
			"bufferView":35,
			"componentType":5126,
			"count":39360,
			"type":"VEC3",
			"min":[-1.55642474,-0.504033089,-2.12206411
			],
			"max":[1.53096926,2.25397611,1.56750691
			]
		},
		{
			"bufferView":36,
			"componentType":5126,
			"count":39360,
			"type":"VEC3",
			"min":[-1.79195583,-0.631505907,-2.37518406
			],
			"max":[1.7411958,2.5261488,1.77638733
			]
		},
		{
			"bufferView":37,
			"componentType":5126,
			"count":39360,
			"type":"VEC3",
			"min":[-2.06040192,-0.783859372,-2.66295433
			],
			"max":[1.98672795,2.83978105,2.01245689
			]
		},
		{
			"bufferView":38,
			"componentType":5126,
			"count":39360,
			"type":"VEC3",
			"min":[-2.35893917,-0.957988679,-2.98781252
			],
			"max":[2.26776266,3.18301082,2.28602743
			]
		},
		{
			"bufferView":39,
			"componentType":5126,
			"count":39360,
			"type":"VEC3",
			"min":[-2.70286584,-1.16136479,-3.34761548
			],
			"max":[2.59248543,3.56319571,2.59157825
			]
		},
		{
			"bufferView":40,
			"componentType":5126,
			"count":39360,
			"type":"VEC3",
			"min":[-3.08845711,-1.39172363,-3.74413633
			],
			"max":[2.9553628,4.00028467,2.93640161
			]
		},
		{
			"bufferView":41,
			"componentType":5126,
			"count":39360,
			"type":"VEC3",
			"min":[-3.51969004,-1.65766478,-4.18768215
			],
			"max":[3.35919833,4.47782421,3.31840444
			]
		},
		{
			"bufferView":42,
			"componentType":5126,
			"count":39360,
			"type":"VEC3",
			"min":[-3.99788237,-1.96371984,-4.68787718
			],
			"max":[3.80714178,5.00208902,3.75071049
			]
		},
		{
			"bufferView":43,
			"componentType":5126,
			"count":39360,
			"type":"VEC3",
			"min":[-4.53662491,-2.31014395,-5.22951031
			],
			"max":[4.31520176,5.58463478,4.22927427
			]
		},
		{
			"bufferView":44,
			"componentType":5126,
			"count":39360,
			"type":"VEC3",
			"min":[-5.135149,-2.70342851,-5.83132601
			],
			"max":[4.88060522,6.22611809,4.75873089
			]
		},
		{
			"bufferView":45,
			"componentType":5126,
			"count":39360,
			"type":"VEC3",
			"min":[-5.79764366,-3.13782287,-6.50010061
			],
			"max":[5.50425911,6.93000937,5.34531164
			]
		},
		{
			"bufferView":46,
			"componentType":5126,
			"count":39360,
			"type":"VEC3",
			"min":[-6.52784109,-3.62270069,-7.23218203
			],
			"max":[6.19456005,7.7071209,6.01527643
			]
		},
		{
			"bufferView":47,
			"componentType":5126,
			"count":39360,
			"type":"VEC3",
			"min":[-7.35349512,-4.16967201,-8.03643703
			],
			"max":[6.95758963,8.5643177,6.7582593
			]
		},
		{
			"bufferView":48,
			"componentType":5126,
			"count":39360,
			"type":"VEC3",
			"min":[-8.25330925,-4.78204918,-8.91564655
			],
			"max":[7.80592394,9.52721786,7.58414316
			]
		},
		{
			"bufferView":49,
			"componentType":5126,
			"count":39360,
			"type":"VEC3",
			"min":[-9.24201488,-5.47526503,-9.8852911
			],
			"max":[8.74811077,10.5900621,8.48921585
			]
		},
		{
			"bufferView":50,
			"componentType":5126,
			"count":39360,
			"type":"VEC3",
			"min":[-10.321064,-6.25961494,-10.9531355
			],
			"max":[9.78825665,11.7553835,9.47633076
			]
		},
		{
			"bufferView":51,
			"componentType":5126,
			"count":39360,
			"type":"VEC3",
			"min":[-11.5039101,-7.11268854,-12.1279831
			],
			"max":[10.9164619,13.0120287,10.576787
			]
		},
		{
			"bufferView":52,
			"componentType":5126,
			"count":39360,
			"type":"VEC3",
			"min":[-12.8116751,-8.04313278,-13.3928194
			],
			"max":[12.1552229,14.4036055,11.7838802
			]
		},
		{
			"bufferView":53,
			"componentType":5126,
			"count":39360,
			"type":"VEC3",
			"min":[-14.2567892,-9.08733654,-14.776309
			],
			"max":[13.5212946,15.9109535,13.0970249
			]
		},
		{
			"bufferView":54,
			"componentType":5126,
			"count":39360,
			"type":"VEC3",
			"min":[-15.8135014,-10.2352667,-16.3180809
			],
			"max":[15.0284576,17.561924,14.5514116
			]
		},
		{
			"bufferView":55,
			"componentType":5126,
			"count":39360,
			"type":"VEC3",
			"min":[-17.5200729,-11.4902534,-18.0262356
			],
			"max":[16.6696663,19.3653698,16.1406193
			]
		},
		{
			"bufferView":56,
			"componentType":5126,
			"count":39360,
			"type":"VEC3",
			"min":[-19.3765049,-12.8789387,-19.8990479
			],
			"max":[18.4606667,21.3178082,17.8776836
			]
		},
		{
			"bufferView":57,
			"componentType":5126,
			"count":39360,
			"type":"VEC3",
			"min":[-21.3937607,-14.3895197,-21.9195805
			],
			"max":[20.4152107,23.4455929,19.7496758
			]
		},
		{
			"bufferView":58,
			"componentType":5126,
			"count":39360,
			"type":"VEC3",
			"min":[-23.5766392,-16.0623341,-24.1413555
			],
			"max":[22.5346622,25.7498131,21.7968712
			]
		},
		{
			"bufferView":59,
			"componentType":5126,
			"count":39360,
			"type":"VEC3",
			"min":[-25.9705772,-17.8624706,-26.5477085
			],
			"max":[24.8372612,28.2480392,24.0254765
			]
		},
		{
			"bufferView":60,
			"componentType":5126,
			"count":39360,
			"type":"VEC3",
			"min":[-28.5360451,-19.8458157,-29.1434593
			],
			"max":[27.346508,30.9248676,26.4672394
			]
		},
		{
			"bufferView":61,
			"componentType":5126,
			"count":39360,
			"type":"VEC3",
			"min":[-31.3244514,-22.0183163,-31.964798
			],
			"max":[30.0493946,33.8566933,29.0799141
			]
		},
		{
			"bufferView":62,
			"componentType":5126,
			"count":39360,
			"type":"VEC3",
			"min":[-34.3532677,-24.3441315,-35.0215759
			],
			"max":[33.0035553,36.9997978,31.9368477
			]
		},
		{
			"bufferView":63,
			"componentType":5126,
			"count":39360,
			"type":"VEC3",
			"min":[-37.6291122,-26.8784351,-38.3155098
			],
			"max":[36.187294,40.3964767,35.005722
			]
		},
		{
			"componentType":5126,
			"count":3540,
			"type":"SCALAR",
			"sparse":{
				"count":59,
				"values":{
					"bufferView":65
				},
				"indices":{
					"bufferView":64,
					"componentType":5125
				}
			},
			"min":[0
			],
			"max":[1
			]
		},
		{
			"bufferView":66,
			"componentType":5126,
			"count":60,
			"type":"SCALAR",
			"min":[0
			],
			"max":[2.45833325
			]
		}
	],
	"buffers":[
		{
			"uri":"kkb_data.bin",
			"byteLength":30229192,
			"name":"main_buffer"
		}
	],
	"bufferViews":[
		{
			"buffer":0,
			"byteLength":472320,
			"target":34963
		},
		{
			"buffer":0,
			"byteOffset":472320,
			"byteLength":472320,
			"target":34962
		},
		{
			"buffer":0,
			"byteOffset":944640,
			"byteLength":472320,
			"target":34962
		},
		{
			"buffer":0,
			"byteOffset":1416960,
			"byteLength":629760,
			"target":34962
		},
		{
			"buffer":0,
			"byteOffset":2046720,
			"byteLength":314880,
			"target":34962
		},
		{
			"buffer":0,
			"byteOffset":2361600,
			"byteLength":472320,
			"target":34962
		},
		{
			"buffer":0,
			"byteOffset":2833920,
			"byteLength":472320,
			"target":34962
		},
		{
			"buffer":0,
			"byteOffset":3306240,
			"byteLength":472320,
			"target":34962
		},
		{
			"buffer":0,
			"byteOffset":3778560,
			"byteLength":472320,
			"target":34962
		},
		{
			"buffer":0,
			"byteOffset":4250880,
			"byteLength":472320,
			"target":34962
		},
		{
			"buffer":0,
			"byteOffset":4723200,
			"byteLength":472320,
			"target":34962
		},
		{
			"buffer":0,
			"byteOffset":5195520,
			"byteLength":472320,
			"target":34962
		},
		{
			"buffer":0,
			"byteOffset":5667840,
			"byteLength":472320,
			"target":34962
		},
		{
			"buffer":0,
			"byteOffset":6140160,
			"byteLength":472320,
			"target":34962
		},
		{
			"buffer":0,
			"byteOffset":6612480,
			"byteLength":472320,
			"target":34962
		},
		{
			"buffer":0,
			"byteOffset":7084800,
			"byteLength":472320,
			"target":34962
		},
		{
			"buffer":0,
			"byteOffset":7557120,
			"byteLength":472320,
			"target":34962
		},
		{
			"buffer":0,
			"byteOffset":8029440,
			"byteLength":472320,
			"target":34962
		},
		{
			"buffer":0,
			"byteOffset":8501760,
			"byteLength":472320,
			"target":34962
		},
		{
			"buffer":0,
			"byteOffset":8974080,
			"byteLength":472320,
			"target":34962
		},
		{
			"buffer":0,
			"byteOffset":9446400,
			"byteLength":472320,
			"target":34962
		},
		{
			"buffer":0,
			"byteOffset":9918720,
			"byteLength":472320,
			"target":34962
		},
		{
			"buffer":0,
			"byteOffset":10391040,
			"byteLength":472320,
			"target":34962
		},
		{
			"buffer":0,
			"byteOffset":10863360,
			"byteLength":472320,
			"target":34962
		},
		{
			"buffer":0,
			"byteOffset":11335680,
			"byteLength":472320,
			"target":34962
		},
		{
			"buffer":0,
			"byteOffset":11808000,
			"byteLength":472320,
			"target":34962
		},
		{
			"buffer":0,
			"byteOffset":12280320,
			"byteLength":472320,
			"target":34962
		},
		{
			"buffer":0,
			"byteOffset":12752640,
			"byteLength":472320,
			"target":34962
		},
		{
			"buffer":0,
			"byteOffset":13224960,
			"byteLength":472320,
			"target":34962
		},
		{
			"buffer":0,
			"byteOffset":13697280,
			"byteLength":472320,
			"target":34962
		},
		{
			"buffer":0,
			"byteOffset":14169600,
			"byteLength":472320,
			"target":34962
		},
		{
			"buffer":0,
			"byteOffset":14641920,
			"byteLength":472320,
			"target":34962
		},
		{
			"buffer":0,
			"byteOffset":15114240,
			"byteLength":472320,
			"target":34962
		},
		{
			"buffer":0,
			"byteOffset":15586560,
			"byteLength":472320,
			"target":34962
		},
		{
			"buffer":0,
			"byteOffset":16058880,
			"byteLength":472320,
			"target":34962
		},
		{
			"buffer":0,
			"byteOffset":16531200,
			"byteLength":472320,
			"target":34962
		},
		{
			"buffer":0,
			"byteOffset":17003520,
			"byteLength":472320,
			"target":34962
		},
		{
			"buffer":0,
			"byteOffset":17475840,
			"byteLength":472320,
			"target":34962
		},
		{
			"buffer":0,
			"byteOffset":17948160,
			"byteLength":472320,
			"target":34962
		},
		{
			"buffer":0,
			"byteOffset":18420480,
			"byteLength":472320,
			"target":34962
		},
		{
			"buffer":0,
			"byteOffset":18892800,
			"byteLength":472320,
			"target":34962
		},
		{
			"buffer":0,
			"byteOffset":19365120,
			"byteLength":472320,
			"target":34962
		},
		{
			"buffer":0,
			"byteOffset":19837440,
			"byteLength":472320,
			"target":34962
		},
		{
			"buffer":0,
			"byteOffset":20309760,
			"byteLength":472320,
			"target":34962
		},
		{
			"buffer":0,
			"byteOffset":20782080,
			"byteLength":472320,
			"target":34962
		},
		{
			"buffer":0,
			"byteOffset":21254400,
			"byteLength":472320,
			"target":34962
		},
		{
			"buffer":0,
			"byteOffset":21726720,
			"byteLength":472320,
			"target":34962
		},
		{
			"buffer":0,
			"byteOffset":22199040,
			"byteLength":472320,
			"target":34962
		},
		{
			"buffer":0,
			"byteOffset":22671360,
			"byteLength":472320,
			"target":34962
		},
		{
			"buffer":0,
			"byteOffset":23143680,
			"byteLength":472320,
			"target":34962
		},
		{
			"buffer":0,
			"byteOffset":23616000,
			"byteLength":472320,
			"target":34962
		},
		{
			"buffer":0,
			"byteOffset":24088320,
			"byteLength":472320,
			"target":34962
		},
		{
			"buffer":0,
			"byteOffset":24560640,
			"byteLength":472320,
			"target":34962
		},
		{
			"buffer":0,
			"byteOffset":25032960,
			"byteLength":472320,
			"target":34962
		},
		{
			"buffer":0,
			"byteOffset":25505280,
			"byteLength":472320,
			"target":34962
		},
		{
			"buffer":0,
			"byteOffset":25977600,
			"byteLength":472320,
			"target":34962
		},
		{
			"buffer":0,
			"byteOffset":26449920,
			"byteLength":472320,
			"target":34962
		},
		{
			"buffer":0,
			"byteOffset":26922240,
			"byteLength":472320,
			"target":34962
		},
		{
			"buffer":0,
			"byteOffset":27394560,
			"byteLength":472320,
			"target":34962
		},
		{
			"buffer":0,
			"byteOffset":27866880,
			"byteLength":472320,
			"target":34962
		},
		{
			"buffer":0,
			"byteOffset":28339200,
			"byteLength":472320,
			"target":34962
		},
		{
			"buffer":0,
			"byteOffset":28811520,
			"byteLength":472320,
			"target":34962
		},
		{
			"buffer":0,
			"byteOffset":29283840,
			"byteLength":472320,
			"target":34962
		},
		{
			"buffer":0,
			"byteOffset":29756160,
			"byteLength":472320,
			"target":34962
		},
		{
			"buffer":0,
			"byteOffset":30228480,
			"byteLength":236
		},
		{
			"buffer":0,
			"byteOffset":30228716,
			"byteLength":236
		},
		{
			"buffer":0,
			"byteOffset":30228952,
			"byteLength":240
		}
	],
	"nodes":[
		{
			"name":"geo8",
			"mesh":0
		}
	],
	"meshes":[
		{
			"primitives":[
				{
					"attributes":{
						"TEXCOORD_0":4,
						"TANGENT":3,
						"POSITION":1,
						"NORMAL":2
					},
					"indices":0,
					"targets":[
						{
							"POSITION":5
						},
						{
							"POSITION":6
						},
						{
							"POSITION":7
						},
						{
							"POSITION":8
						},
						{
							"POSITION":9
						},
						{
							"POSITION":10
						},
						{
							"POSITION":11
						},
						{
							"POSITION":12
						},
						{
							"POSITION":13
						},
						{
							"POSITION":14
						},
						{
							"POSITION":15
						},
						{
							"POSITION":16
						},
						{
							"POSITION":17
						},
						{
							"POSITION":18
						},
						{
							"POSITION":19
						},
						{
							"POSITION":20
						},
						{
							"POSITION":21
						},
						{
							"POSITION":22
						},
						{
							"POSITION":23
						},
						{
							"POSITION":24
						},
						{
							"POSITION":25
						},
						{
							"POSITION":26
						},
						{
							"POSITION":27
						},
						{
							"POSITION":28
						},
						{
							"POSITION":29
						},
						{
							"POSITION":30
						},
						{
							"POSITION":31
						},
						{
							"POSITION":32
						},
						{
							"POSITION":33
						},
						{
							"POSITION":34
						},
						{
							"POSITION":35
						},
						{
							"POSITION":36
						},
						{
							"POSITION":37
						},
						{
							"POSITION":38
						},
						{
							"POSITION":39
						},
						{
							"POSITION":40
						},
						{
							"POSITION":41
						},
						{
							"POSITION":42
						},
						{
							"POSITION":43
						},
						{
							"POSITION":44
						},
						{
							"POSITION":45
						},
						{
							"POSITION":46
						},
						{
							"POSITION":47
						},
						{
							"POSITION":48
						},
						{
							"POSITION":49
						},
						{
							"POSITION":50
						},
						{
							"POSITION":51
						},
						{
							"POSITION":52
						},
						{
							"POSITION":53
						},
						{
							"POSITION":54
						},
						{
							"POSITION":55
						},
						{
							"POSITION":56
						},
						{
							"POSITION":57
						},
						{
							"POSITION":58
						},
						{
							"POSITION":59
						},
						{
							"POSITION":60
						},
						{
							"POSITION":61
						},
						{
							"POSITION":62
						},
						{
							"POSITION":63
						}
					]
				}
			],
			"name":"uvtexture1",
			"extras":{
				"targetNames":["","","","","","","","","","","","","","","","","","","","","","","","","","","","","","","","","","","","","","","","","","","","","","","","","","","","","","","","","","",""
				]
			}
		}
	],
	"scenes":[
		{
			"nodes":[0
			]
		}
	],
	"scene":0
}
