{
	"asset":{
		"version":"2.0",
		"generator":"Houdini GLTF 2.0 Exporter"
	},
	"accessors":[
		{
			"bufferView":0,
			"componentType":5123,
			"count":12732,
			"type":"SCALAR",
			"min":[0
			],
			"max":[2119
			]
		},
		{
			"bufferView":1,
			"componentType":5126,
			"count":2120,
			"type":"VEC3",
			"min":[-3.5,0,-3
			],
			"max":[3.5,0.419999987,10
			]
		}
	],
	"buffers":[
		{
			"uri":"stage_2_path_collider_data.bin",
			"byteLength":50904,
			"name":"main_buffer"
		}
	],
	"bufferViews":[
		{
			"buffer":0,
			"byteLength":25464,
			"target":34963
		},
		{
			"buffer":0,
			"byteOffset":25464,
			"byteLength":25440,
			"target":34962
		}
	],
	"nodes":[
		{
			"name":"STAGE_2",
			"mesh":0
		}
	],
	"meshes":[
		{
			"primitives":[
				{
					"attributes":{
						"POSITION":1
					},
					"indices":0
				}
			],
			"name":"PATH_COLLIDER_MODEL"
		}
	],
	"scenes":[
		{
			"nodes":[0
			]
		}
	],
	"scene":0
}
