{
	"asset":{
		"version":"2.0",
		"generator":"Houdini GLTF 2.0 Exporter"
	},
	"accessors":[
		{
			"bufferView":0,
			"componentType":5123,
			"count":1908,
			"type":"SCALAR",
			"min":[0
			],
			"max":[820
			]
		},
		{
			"bufferView":1,
			"componentType":5126,
			"count":821,
			"type":"VEC3",
			"min":[-1.01984203,-0.452610135,-0.122834295
			],
			"max":[1.02159739,0.451341838,0.00426466763
			]
		},
		{
			"bufferView":2,
			"componentType":5126,
			"count":821,
			"type":"VEC3",
			"min":[-0.999886096,-0.998610616,-0.999999523
			],
			"max":[0.999648869,0.999727964,0.999994397
			]
		},
		{
			"bufferView":3,
			"componentType":5126,
			"count":821,
			"type":"VEC4",
			"min":[0,0,0,1
			],
			"max":[0,0,0,1
			]
		}
	],
	"buffers":[
		{
			"uri":"output_data.bin",
			"byteLength":36656,
			"name":"main_buffer"
		}
	],
	"bufferViews":[
		{
			"buffer":0,
			"byteLength":3816,
			"target":34963
		},
		{
			"buffer":0,
			"byteOffset":3816,
			"byteLength":9852,
			"target":34962
		},
		{
			"buffer":0,
			"byteOffset":13668,
			"byteLength":9852,
			"target":34962
		},
		{
			"buffer":0,
			"byteOffset":23520,
			"byteLength":13136,
			"target":34962
		}
	],
	"nodes":[
		{
			"name":"geo1",
			"mesh":0
		}
	],
	"meshes":[
		{
			"primitives":[
				{
					"attributes":{
						"TANGENT":3,
						"POSITION":1,
						"NORMAL":2
					},
					"indices":0
				}
			],
			"name":"tangent1"
		}
	],
	"scenes":[
		{
			"nodes":[0
			]
		}
	],
	"scene":0
}
