{
	"asset":{
		"version":"2.0",
		"generator":"Houdini GLTF 2.0 Exporter"
	},
	"accessors":[
		{
			"bufferView":0,
			"componentType":5125,
			"count":143532,
			"type":"SCALAR",
			"min":[0
			],
			"max":[31895
			]
		},
		{
			"bufferView":1,
			"componentType":5126,
			"count":31896,
			"type":"VEC3",
			"min":[-2.57018709,-1.11057878,-2.56911349
			],
			"max":[2.56531572,1.25464451,2.56595707
			]
		}
	],
	"buffers":[
		{
			"uri":"stage2_2_data.bin",
			"byteLength":956880,
			"name":"main_buffer"
		}
	],
	"bufferViews":[
		{
			"buffer":0,
			"byteLength":574128,
			"target":34963
		},
		{
			"buffer":0,
			"byteOffset":574128,
			"byteLength":382752,
			"target":34962
		}
	],
	"nodes":[
		{
			"name":"stage2_2",
			"mesh":0
		}
	],
	"meshes":[
		{
			"primitives":[
				{
					"attributes":{
						"POSITION":1
					},
					"indices":0,
					"material":0
				}
			],
			"name":"copytocurves1"
		}
	],
	"materials":[
		{
			"name":"STAGE2_2",
			"pbrMetallicRoughness":{
				"roughnessFactor":0.532999992
			}
		}
	],
	"scenes":[
		{
			"nodes":[0
			]
		}
	],
	"scene":0
}
