{
	"asset":{
		"version":"2.0",
		"generator":"Houdini GLTF 2.0 Exporter"
	},
	"accessors":[
		{
			"bufferView":0,
			"componentType":5125,
			"count":39186,
			"type":"SCALAR",
			"min":[0
			],
			"max":[6689
			]
		},
		{
			"bufferView":1,
			"componentType":5126,
			"count":6690,
			"type":"VEC3",
			"min":[-2.5,0.297074318,-2.5
			],
			"max":[2.5,2.29999995,2.5
			]
		}
	],
	"buffers":[
		{
			"uri":"stage2_1_data.bin",
			"byteLength":237024,
			"name":"main_buffer"
		}
	],
	"bufferViews":[
		{
			"buffer":0,
			"byteLength":156744,
			"target":34963
		},
		{
			"buffer":0,
			"byteOffset":156744,
			"byteLength":80280,
			"target":34962
		}
	],
	"nodes":[
		{
			"name":"stage_2_model_1",
			"mesh":0
		}
	],
	"meshes":[
		{
			"primitives":[
				{
					"attributes":{
						"POSITION":1
					},
					"indices":0,
					"material":0
				}
			],
			"name":"transform2"
		}
	],
	"materials":[
		{
			"name":"STAGE2_1",
			"pbrMetallicRoughness":{
				"roughnessFactor":0.300000012
			}
		}
	],
	"scenes":[
		{
			"nodes":[0
			]
		}
	],
	"scene":0
}
