{
	"asset":{
		"version":"2.0",
		"generator":"Houdini GLTF 2.0 Exporter"
	},
	"accessors":[
		{
			"bufferView":0,
			"componentType":5123,
			"count":10680,
			"type":"SCALAR",
			"min":[0
			],
			"max":[6327
			]
		},
		{
			"bufferView":1,
			"componentType":5126,
			"count":6328,
			"type":"VEC3",
			"min":[-3.68628049,-1.34149075,6.49022675
			],
			"max":[3.68628049,4.82478714,9.0860014
			]
		},
		{
			"bufferView":2,
			"componentType":5126,
			"count":6328,
			"type":"VEC2",
			"min":[2,-1
			],
			"max":[2,-1
			]
		},
		{
			"bufferView":3,
			"componentType":5126,
			"count":6328,
			"type":"VEC3",
			"min":[-0.999682009,-0.999820411,-0.999831617
			],
			"max":[0.999492109,0.999820411,0.999831617
			]
		},
		{
			"bufferView":4,
			"componentType":5123,
			"count":822,
			"type":"SCALAR",
			"min":[0
			],
			"max":[181
			]
		},
		{
			"bufferView":5,
			"componentType":5126,
			"count":182,
			"type":"VEC3",
			"min":[-3.91021228,3.0456543,6.98231411
			],
			"max":[3.91021228,3.65737343,7.69061518
			]
		},
		{
			"bufferView":6,
			"componentType":5126,
			"count":182,
			"type":"VEC2",
			"min":[2,-1
			],
			"max":[2,-1
			]
		},
		{
			"bufferView":7,
			"componentType":5126,
			"count":182,
			"type":"VEC3",
			"min":[-0.999734998,-0.995548308,-0.98133105
			],
			"max":[0.959031463,0.995548308,0.98133105
			]
		}
	],
	"buffers":[
		{
			"uri":"stage_2_statues_data.bin",
			"byteLength":231324,
			"name":"main_buffer"
		}
	],
	"bufferViews":[
		{
			"buffer":0,
			"byteLength":21360,
			"target":34963
		},
		{
			"buffer":0,
			"byteOffset":21360,
			"byteLength":75936,
			"target":34962
		},
		{
			"buffer":0,
			"byteOffset":97296,
			"byteLength":50624,
			"target":34962
		},
		{
			"buffer":0,
			"byteOffset":147920,
			"byteLength":75936,
			"target":34962
		},
		{
			"buffer":0,
			"byteOffset":223856,
			"byteLength":1644,
			"target":34963
		},
		{
			"buffer":0,
			"byteOffset":225500,
			"byteLength":2184,
			"target":34962
		},
		{
			"buffer":0,
			"byteOffset":227684,
			"byteLength":1456,
			"target":34962
		},
		{
			"buffer":0,
			"byteOffset":229140,
			"byteLength":2184,
			"target":34962
		}
	],
	"nodes":[
		{
			"name":"STAGE_2",
			"mesh":0
		}
	],
	"meshes":[
		{
			"primitives":[
				{
					"attributes":{
						"NORMAL":3,
						"TEXCOORD_0":2,
						"POSITION":1
					},
					"indices":0
				},
				{
					"attributes":{
						"NORMAL":7,
						"TEXCOORD_0":6,
						"POSITION":5
					},
					"indices":4
				}
			],
			"name":"merge5"
		}
	],
	"scenes":[
		{
			"nodes":[0
			]
		}
	],
	"scene":0
}
