{
	"asset":{
		"version":"2.0",
		"generator":"Houdini GLTF 2.0 Exporter"
	},
	"accessors":[
		{
			"bufferView":0,
			"componentType":5123,
			"count":4770,
			"type":"SCALAR",
			"min":[0
			],
			"max":[866
			]
		},
		{
			"bufferView":1,
			"componentType":5126,
			"count":867,
			"type":"VEC3",
			"min":[-2.99756718,0.00100000005,-2.99756718
			],
			"max":[2.99756718,3.00099993,2.99756718
			]
		},
		{
			"bufferView":2,
			"componentType":5126,
			"count":867,
			"type":"VEC2",
			"min":[0.0249999966,0
			],
			"max":[1.22500002,0.647686958
			]
		}
	],
	"buffers":[
		{
			"uri":"stage_2_dome_data.bin",
			"byteLength":26880,
			"name":"main_buffer"
		}
	],
	"bufferViews":[
		{
			"buffer":0,
			"byteLength":9540,
			"target":34963
		},
		{
			"buffer":0,
			"byteOffset":9540,
			"byteLength":10404,
			"target":34962
		},
		{
			"buffer":0,
			"byteOffset":19944,
			"byteLength":6936,
			"target":34962
		}
	],
	"nodes":[
		{
			"name":"STAGE_2",
			"mesh":0
		}
	],
	"meshes":[
		{
			"primitives":[
				{
					"attributes":{
						"TEXCOORD_0":2,
						"POSITION":1
					},
					"indices":0,
					"material":0
				}
			],
			"name":"uvtexture1"
		}
	],
	"materials":[
		{
			"name":"STAGE2_2",
			"pbrMetallicRoughness":{
				"roughnessFactor":0.532999992
			}
		}
	],
	"scenes":[
		{
			"nodes":[0
			]
		}
	],
	"scene":0
}
