{
	"asset":{
		"version":"2.0",
		"generator":"Houdini GLTF 2.0 Exporter"
	},
	"accessors":[
		{
			"bufferView":0,
			"componentType":5123,
			"count":5739,
			"type":"SCALAR",
			"min":[0
			],
			"max":[1059
			]
		},
		{
			"bufferView":1,
			"componentType":5126,
			"count":1060,
			"type":"VEC3",
			"min":[-3.5,0,-3
			],
			"max":[3.5,0,10
			]
		}
	],
	"buffers":[
		{
			"uri":"stage_2_path_data.bin",
			"byteLength":24200,
			"name":"main_buffer"
		}
	],
	"bufferViews":[
		{
			"buffer":0,
			"byteLength":11478,
			"target":34963
		},
		{
			"buffer":0,
			"byteOffset":11480,
			"byteLength":12720,
			"target":34962
		}
	],
	"nodes":[
		{
			"name":"STAGE_2",
			"mesh":0
		}
	],
	"meshes":[
		{
			"primitives":[
				{
					"attributes":{
						"POSITION":1
					},
					"indices":0
				}
			],
			"name":"boolean2"
		}
	],
	"scenes":[
		{
			"nodes":[0
			]
		}
	],
	"scene":0
}
