{
	"asset":{
		"version":"2.0",
		"generator":"Houdini GLTF 2.0 Exporter"
	},
	"accessors":[
		{
			"bufferView":0,
			"componentType":5125,
			"count":39300,
			"type":"SCALAR",
			"min":[0
			],
			"max":[10961
			]
		},
		{
			"bufferView":1,
			"componentType":5126,
			"count":10962,
			"type":"VEC3",
			"min":[-2.48226905,0,-2.48232102
			],
			"max":[2.48226905,3.77999997,2.48232102
			]
		},
		{
			"bufferView":2,
			"componentType":5126,
			"count":10962,
			"type":"VEC3",
			"min":[0,0.926631987,0
			],
			"max":[0.347623467,1,0.217909843
			]
		},
		{
			"bufferView":3,
			"componentType":5126,
			"count":10962,
			"type":"VEC4",
			"min":[0,0,0,1
			],
			"max":[0,0,0,1
			]
		}
	],
	"buffers":[
		{
			"uri":"stage_3_path_data.bin",
			"byteLength":595680,
			"name":"main_buffer"
		}
	],
	"bufferViews":[
		{
			"buffer":0,
			"byteLength":157200,
			"target":34963
		},
		{
			"buffer":0,
			"byteOffset":157200,
			"byteLength":131544,
			"target":34962
		},
		{
			"buffer":0,
			"byteOffset":288744,
			"byteLength":131544,
			"target":34962
		},
		{
			"buffer":0,
			"byteOffset":420288,
			"byteLength":175392,
			"target":34962
		}
	],
	"nodes":[
		{
			"name":"geo1",
			"mesh":0
		}
	],
	"meshes":[
		{
			"primitives":[
				{
					"attributes":{
						"TANGENT":3,
						"POSITION":1,
						"NORMAL":2
					},
					"indices":0
				}
			],
			"name":"tangent1"
		}
	],
	"scenes":[
		{
			"nodes":[0
			]
		}
	],
	"scene":0
}
