{
	"asset":{
		"version":"2.0",
		"generator":"Houdini GLTF 2.0 Exporter"
	},
	"accessors":[
		{
			"bufferView":0,
			"componentType":5123,
			"count":8391,
			"type":"SCALAR",
			"min":[0
			],
			"max":[3810
			]
		},
		{
			"bufferView":1,
			"componentType":5126,
			"count":3811,
			"type":"VEC3",
			"min":[-0.807975769,0.0360485315,-0.900081515
			],
			"max":[0.571848512,3.77297926,1.31197906
			]
		},
		{
			"bufferView":2,
			"componentType":5126,
			"count":3811,
			"type":"VEC4",
			"min":[-3.48623347,-1.7611568,-3.30820823,1
			],
			"max":[2.96359205,5.37255669,6.97905874,1
			]
		},
		{
			"bufferView":3,
			"componentType":5126,
			"count":3811,
			"type":"VEC2",
			"min":[0.215651467,5.96046448e-08
			],
			"max":[0.618374586,1
			]
		},
		{
			"bufferView":4,
			"componentType":5126,
			"count":3811,
			"type":"VEC2",
			"min":[-0.0113763968,-0.00657105446
			],
			"max":[0.997512162,1.00081587
			]
		},
		{
			"bufferView":5,
			"componentType":5126,
			"count":3811,
			"type":"VEC2",
			"min":[-0.0113763968,-0.00657105446
			],
			"max":[0.997512162,1.00081587
			]
		},
		{
			"bufferView":6,
			"componentType":5126,
			"count":3811,
			"type":"VEC3",
			"min":[-0.99998349,-0.998988152,-0.999923587
			],
			"max":[0.999670267,0.999766767,0.999866545
			]
		},
		{
			"bufferView":7,
			"componentType":5126,
			"count":3811,
			"type":"VEC2",
			"min":[-0.0113763968,-0.000815868378
			],
			"max":[0.997512162,1.00657105
			]
		},
		{
			"bufferView":8,
			"componentType":5126,
			"count":3811,
			"type":"VEC2",
			"min":[-0.0113763968,-0.00657105446
			],
			"max":[0.997512162,1.00081587
			]
		}
	],
	"buffers":[
		{
			"uri":"mesh2_data.bin",
			"byteLength":321664,
			"name":"main_buffer"
		}
	],
	"bufferViews":[
		{
			"buffer":0,
			"byteLength":16782,
			"target":34963
		},
		{
			"buffer":0,
			"byteOffset":16784,
			"byteLength":45732,
			"target":34962
		},
		{
			"buffer":0,
			"byteOffset":62516,
			"byteLength":60976,
			"target":34962
		},
		{
			"buffer":0,
			"byteOffset":123492,
			"byteLength":30488,
			"target":34962
		},
		{
			"buffer":0,
			"byteOffset":153980,
			"byteLength":30488,
			"target":34962
		},
		{
			"buffer":0,
			"byteOffset":184468,
			"byteLength":30488,
			"target":34962
		},
		{
			"buffer":0,
			"byteOffset":214956,
			"byteLength":45732,
			"target":34962
		},
		{
			"buffer":0,
			"byteOffset":260688,
			"byteLength":30488,
			"target":34962
		},
		{
			"buffer":0,
			"byteOffset":291176,
			"byteLength":30488,
			"target":34962
		}
	],
	"nodes":[
		{
			"name":"geo11",
			"mesh":0
		}
	],
	"meshes":[
		{
			"primitives":[
				{
					"attributes":{
						"TEXCOORD_1":7,
						"TEXCOORD_3":8,
						"TEXCOORD_0":3,
						"TANGENT":2,
						"POSITION":1,
						"NORMAL":6,
						"TEXCOORD_4":5,
						"TEXCOORD_2":4
					},
					"indices":0
				}
			],
			"name":"null3"
		}
	],
	"scenes":[
		{
			"nodes":[0
			]
		}
	],
	"scene":0
}
