{
	"asset":{
		"version":"2.0",
		"generator":"Houdini GLTF 2.0 Exporter"
	},
	"accessors":[
		{
			"bufferView":0,
			"componentType":5123,
			"count":5004,
			"type":"SCALAR",
			"min":[0
			],
			"max":[963
			]
		},
		{
			"bufferView":1,
			"componentType":5126,
			"count":964,
			"type":"VEC3",
			"min":[-3.21572924,-8.17691517,-3.09514928
			],
			"max":[2.96136808,7.77424574,3.78586912
			]
		},
		{
			"bufferView":2,
			"componentType":5126,
			"count":964,
			"type":"VEC3",
			"min":[-0.998960376,-0.999688148,-0.998861372
			],
			"max":[0.999786913,0.998716295,0.999020636
			]
		},
		{
			"bufferView":3,
			"componentType":5126,
			"count":964,
			"type":"VEC2",
			"min":[0.00161114801,0.00283735991
			],
			"max":[0.996418655,0.836262941
			]
		},
		{
			"bufferView":4,
			"componentType":5126,
			"count":964,
			"type":"VEC4",
			"min":[-1.01234031,-1.0714277,-1.02516687,1
			],
			"max":[1.08326375,1.03262532,1.00743866,1
			]
		}
	],
	"buffers":[
		{
			"uri":"mesh1_data.bin",
			"byteLength":56280,
			"name":"main_buffer"
		}
	],
	"bufferViews":[
		{
			"buffer":0,
			"byteLength":10008,
			"target":34963
		},
		{
			"buffer":0,
			"byteOffset":10008,
			"byteLength":11568,
			"target":34962
		},
		{
			"buffer":0,
			"byteOffset":21576,
			"byteLength":11568,
			"target":34962
		},
		{
			"buffer":0,
			"byteOffset":33144,
			"byteLength":7712,
			"target":34962
		},
		{
			"buffer":0,
			"byteOffset":40856,
			"byteLength":15424,
			"target":34962
		}
	],
	"nodes":[
		{
			"name":"geo10",
			"mesh":0
		}
	],
	"meshes":[
		{
			"primitives":[
				{
					"attributes":{
						"TANGENT":4,
						"TEXCOORD_0":3,
						"POSITION":1,
						"NORMAL":2
					},
					"indices":0
				}
			],
			"name":"polyreduce1"
		}
	],
	"scenes":[
		{
			"nodes":[0
			]
		}
	],
	"scene":0
}
