{
	"asset":{
		"version":"2.0",
		"generator":"Houdini GLTF 2.0 Exporter"
	},
	"accessors":[
		{
			"bufferView":0,
			"componentType":5123,
			"count":1986,
			"type":"SCALAR",
			"min":[0
			],
			"max":[663
			]
		},
		{
			"bufferView":1,
			"componentType":5126,
			"count":664,
			"type":"VEC3",
			"min":[-1.37185049,-0.00024951814,-1.34648335
			],
			"max":[1.30643666,1.05430806,1.26574445
			]
		},
		{
			"bufferView":2,
			"componentType":5125,
			"count":295569,
			"type":"SCALAR",
			"min":[0
			],
			"max":[57312
			]
		},
		{
			"bufferView":3,
			"componentType":5126,
			"count":57313,
			"type":"VEC3",
			"min":[0.401166916,-0.182304025,-1.60416496
			],
			"max":[1.03606081,0.465174496,-0.572414398
			]
		},
		{
			"bufferView":4,
			"componentType":5126,
			"count":57313,
			"type":"VEC2",
			"min":[0,0.000100016594
			],
			"max":[0.997399986,0.999231339
			]
		},
		{
			"bufferView":5,
			"componentType":5126,
			"count":57313,
			"type":"VEC3",
			"min":[-0.999958992,-0.999999404,-0.999997973
			],
			"max":[0.999990582,0.999968588,0.999667883
			]
		}
	],
	"buffers":[
		{
			"uri":"output_3_data.bin",
			"byteLength":3028232,
			"name":"main_buffer"
		}
	],
	"bufferViews":[
		{
			"buffer":0,
			"byteLength":3972,
			"target":34963
		},
		{
			"buffer":0,
			"byteOffset":3972,
			"byteLength":7968,
			"target":34962
		},
		{
			"buffer":0,
			"byteOffset":11940,
			"byteLength":1182276,
			"target":34963
		},
		{
			"buffer":0,
			"byteOffset":1194216,
			"byteLength":687756,
			"target":34962
		},
		{
			"buffer":0,
			"byteOffset":1881972,
			"byteLength":458504,
			"target":34962
		},
		{
			"buffer":0,
			"byteOffset":2340476,
			"byteLength":687756,
			"target":34962
		}
	],
	"nodes":[
		{
			"children":[2
			],
			"name":"Root"
		},
		{
			"name":"player_path",
			"mesh":0
		},
		{
			"children":[3
			],
			"matrix":[1,0,0,0,0,0,-1,0,0,1,0,0,0,0,0,1
			],
			"name":"Sketchfab_model"
		},
		{
			"children":[4
			],
			"name":"root"
		},
		{
			"children":[5
			],
			"matrix":[1,0,0,0,0,0,1,0,0,-1,0,0,0,0,0,1
			],
			"name":"GLTF_SceneRootNode"
		},
		{
			"children":[6
			],
			"matrix":[1,0,0,0,0,0,1,0,0,-1,0,0,0,0,0,1
			],
			"name":"textured_output_0"
		},
		{
			"matrix":[1,0,0,0,0,1,0,0,0,0,1,0,-0.722242236,-0.133491829,0.596599221,1
			],
			"name":"Object_4",
			"mesh":1
		},
		{
			"name":"player_path1"
		}
	],
	"meshes":[
		{
			"primitives":[
				{
					"attributes":{
						"POSITION":1
					},
					"indices":0
				}
			],
			"name":"sweep1"
		},
		{
			"primitives":[
				{
					"attributes":{
						"NORMAL":5,
						"TEXCOORD_0":4,
						"POSITION":3
					},
					"indices":2,
					"material":0
				}
			],
			"name":"transform1"
		}
	],
	"materials":[
		{
			"name":"material_0",
			"pbrMetallicRoughness":{
				"metallicFactor":0,
				"baseColorTexture":{
					"index":0
				}
			}
		}
	],
	"scenes":[
		{
			"nodes":[0
			]
		}
	],
	"textures":[
		{
			"source":0
		}
	],
	"images":[
		{
			"uri":"material_0_baseColor.jpg",
			"mimeType":"image/jpeg"
		}
	],
	"scene":0
}
