{
	"asset":{
		"version":"2.0",
		"generator":"Houdini GLTF 2.0 Exporter"
	},
	"accessors":[
		{
			"bufferView":0,
			"componentType":5125,
			"count":354276,
			"type":"SCALAR",
			"min":[0
			],
			"max":[78727
			]
		},
		{
			"bufferView":1,
			"componentType":5126,
			"count":78728,
			"type":"VEC3",
			"min":[-1.15073669,-0.00499999989,-1.19148314
			],
			"max":[1.02017057,1.63258219,1.01870382
			]
		},
		{
			"bufferView":2,
			"componentType":5126,
			"count":78728,
			"type":"VEC3",
			"min":[-0.999941826,-0.999943435,-0.999985993
			],
			"max":[0.999941826,0.999943376,0.999985993
			]
		}
	],
	"buffers":[
		{
			"uri":"output_4_data.bin",
			"byteLength":3306576,
			"name":"main_buffer"
		}
	],
	"bufferViews":[
		{
			"buffer":0,
			"byteLength":1417104,
			"target":34963
		},
		{
			"buffer":0,
			"byteOffset":1417104,
			"byteLength":944736,
			"target":34962
		},
		{
			"buffer":0,
			"byteOffset":2361840,
			"byteLength":944736,
			"target":34962
		}
	],
	"nodes":[
		{
			"name":"lsystem_object1",
			"mesh":0
		},
		{
			"name":"player_path"
		},
		{
			"children":[3
			],
			"name":"scene_gltf"
		},
		{
			"children":[4
			],
			"matrix":[1,0,0,0,0,0,-1,0,0,1,0,0,0,0,0,1
			],
			"name":"Sketchfab_model"
		},
		{
			"children":[5
			],
			"name":"root"
		},
		{
			"children":[6
			],
			"matrix":[1,0,0,0,0,0,1,0,0,-1,0,0,0,0,0,1
			],
			"name":"GLTF_SceneRootNode"
		},
		{
			"children":[7
			],
			"matrix":[1,0,0,0,0,0,1,0,0,-1,0,0,0,0,0,1
			],
			"name":"textured_output_0"
		},
		{
			"matrix":[1,0,0,0,0,1,0,0,0,0,1,0,-0.722242236,-0.133491829,0.596599221,1
			],
			"name":"Object_4"
		},
		{
			"name":"player_path1"
		},
		{
			"name":"geo1"
		}
	],
	"meshes":[
		{
			"primitives":[
				{
					"attributes":{
						"NORMAL":2,
						"POSITION":1
					},
					"indices":0,
					"material":0
				}
			],
			"name":"merge1"
		}
	],
	"materials":[
		{
			"name":"LSYSTEM",
			"pbrMetallicRoughness":{
				"baseColorFactor":[0.200000003,0.200000003,0.200000003,1
				],
				"metallicFactor":0,
				"roughnessFactor":0.300000012
			}
		}
	],
	"scenes":[
		{
			"nodes":[0
			]
		}
	],
	"scene":0
}
