{
	"asset":{
		"version":"2.0",
		"generator":"Houdini GLTF 2.0 Exporter"
	},
	"animations":[
		{
			"channels":[
				{
					"target":{
						"node":0,
						"path":"weights"
					},
					"sampler":0
				}
			],
			"samplers":[
				{
					"input":65,
					"interpolation":"LINEAR",
					"output":64
				}
			]
		}
	],
	"accessors":[
		{
			"bufferView":0,
			"componentType":5123,
			"count":28800,
			"type":"SCALAR",
			"min":[0
			],
			"max":[4859
			]
		},
		{
			"bufferView":1,
			"componentType":5126,
			"count":4860,
			"type":"VEC3",
			"min":[-11.0156698,-12.087574,-12.366806
			],
			"max":[11.9153891,13.7355604,11.6890659
			]
		},
		{
			"bufferView":2,
			"componentType":5126,
			"count":4860,
			"type":"VEC3",
			"min":[-0.99963975,-0.99973762,-0.998803616
			],
			"max":[0.999993742,0.999515951,0.999545157
			]
		},
		{
			"bufferView":3,
			"componentType":5126,
			"count":4860,
			"type":"VEC4",
			"min":[-0.968329251,-0.999390423,-0.950176835,1
			],
			"max":[0.999966621,0.99933356,0.971199632,1
			]
		},
		{
			"bufferView":4,
			"componentType":5126,
			"count":4860,
			"type":"VEC2",
			"min":[0,0
			],
			"max":[0.99999994,1
			]
		},
		{
			"bufferView":5,
			"componentType":5126,
			"count":4860,
			"type":"VEC3",
			"min":[-0.53264904,-0.709110975,-0.590712547
			],
			"max":[0.734501958,0.626188755,0.813090324
			]
		},
		{
			"bufferView":6,
			"componentType":5126,
			"count":4860,
			"type":"VEC3",
			"min":[-0.945155144,-1.15633678,-0.883933067
			],
			"max":[1.06599379,0.971966743,1.16614723
			]
		},
		{
			"bufferView":7,
			"componentType":5126,
			"count":4860,
			"type":"VEC3",
			"min":[-1.35052872,-1.56836605,-1.50603986
			],
			"max":[1.56584227,1.11640871,1.58955431
			]
		},
		{
			"bufferView":8,
			"componentType":5126,
			"count":4860,
			"type":"VEC3",
			"min":[-1.30554008,-1.70700836,-1.82900238
			],
			"max":[1.71696925,1.45662022,1.75801277
			]
		},
		{
			"bufferView":9,
			"componentType":5126,
			"count":4860,
			"type":"VEC3",
			"min":[-1.49966192,-1.89728355,-1.73369431
			],
			"max":[1.94093847,1.68405437,1.88240552
			]
		},
		{
			"bufferView":10,
			"componentType":5126,
			"count":4860,
			"type":"VEC3",
			"min":[-1.46914864,-1.85544968,-1.66129971
			],
			"max":[2.13265634,1.70671892,1.99719763
			]
		},
		{
			"bufferView":11,
			"componentType":5126,
			"count":4860,
			"type":"VEC3",
			"min":[-1.75093126,-1.8550539,-1.80516434
			],
			"max":[2.12466764,1.90770197,2.22343564
			]
		},
		{
			"bufferView":12,
			"componentType":5126,
			"count":4860,
			"type":"VEC3",
			"min":[-1.95411539,-2.03405309,-1.99264479
			],
			"max":[2.21354771,2.06137085,2.42635584
			]
		},
		{
			"bufferView":13,
			"componentType":5126,
			"count":4860,
			"type":"VEC3",
			"min":[-2.31290436,-2.28381062,-1.92055559
			],
			"max":[2.36671305,2.20598507,2.75110555
			]
		},
		{
			"bufferView":14,
			"componentType":5126,
			"count":4860,
			"type":"VEC3",
			"min":[-2.46829319,-2.40412712,-2.08268666
			],
			"max":[2.62683773,2.52288032,2.92311716
			]
		},
		{
			"bufferView":15,
			"componentType":5126,
			"count":4860,
			"type":"VEC3",
			"min":[-2.73633909,-2.60796547,-2.40760326
			],
			"max":[2.78944421,2.71955562,3.17801213
			]
		},
		{
			"bufferView":16,
			"componentType":5126,
			"count":4860,
			"type":"VEC3",
			"min":[-3.10339689,-2.65707612,-2.81976414
			],
			"max":[2.95876145,2.79211473,3.30017161
			]
		},
		{
			"bufferView":17,
			"componentType":5126,
			"count":4860,
			"type":"VEC3",
			"min":[-3.13778782,-2.5094049,-2.79235125
			],
			"max":[3.02659774,2.7920711,3.298105
			]
		},
		{
			"bufferView":18,
			"componentType":5126,
			"count":4860,
			"type":"VEC3",
			"min":[-3.40649223,-2.34984303,-2.88687563
			],
			"max":[3.10495567,3.08935213,3.16253066
			]
		},
		{
			"bufferView":19,
			"componentType":5126,
			"count":4860,
			"type":"VEC3",
			"min":[-3.81073093,-2.26243496,-2.97949862
			],
			"max":[3.2911458,3.18843174,3.14910102
			]
		},
		{
			"bufferView":20,
			"componentType":5126,
			"count":4860,
			"type":"VEC3",
			"min":[-3.89412785,-2.24039173,-3.11431026
			],
			"max":[3.41631961,3.34851122,3.04110026
			]
		},
		{
			"bufferView":21,
			"componentType":5126,
			"count":4860,
			"type":"VEC3",
			"min":[-3.85168457,-2.4319582,-3.31517315
			],
			"max":[3.44884157,3.38166666,3.05264401
			]
		},
		{
			"bufferView":22,
			"componentType":5126,
			"count":4860,
			"type":"VEC3",
			"min":[-3.86881399,-2.46665764,-3.44775391
			],
			"max":[3.3517487,3.55827665,3.04480219
			]
		},
		{
			"bufferView":23,
			"componentType":5126,
			"count":4860,
			"type":"VEC3",
			"min":[-3.93266773,-2.59680986,-3.5331552
			],
			"max":[3.24177599,3.51594162,3.123528
			]
		},
		{
			"bufferView":24,
			"componentType":5126,
			"count":4860,
			"type":"VEC3",
			"min":[-4.03735352,-2.56627536,-3.39251041
			],
			"max":[3.23492122,3.50563765,3.21212053
			]
		},
		{
			"bufferView":25,
			"componentType":5126,
			"count":4860,
			"type":"VEC3",
			"min":[-4.37339497,-2.60364938,-3.1595602
			],
			"max":[3.28284955,3.67429042,3.35488844
			]
		},
		{
			"bufferView":26,
			"componentType":5126,
			"count":4860,
			"type":"VEC3",
			"min":[-4.31203985,-2.98853922,-3.18712568
			],
			"max":[3.33229852,3.83086371,3.41548896
			]
		},
		{
			"bufferView":27,
			"componentType":5126,
			"count":4860,
			"type":"VEC3",
			"min":[-4.17947721,-3.22110152,-3.16566706
			],
			"max":[3.46555281,3.61237741,3.40534377
			]
		},
		{
			"bufferView":28,
			"componentType":5126,
			"count":4860,
			"type":"VEC3",
			"min":[-4.35527372,-3.2225287,-3.18632889
			],
			"max":[3.69095373,3.73496032,3.44973755
			]
		},
		{
			"bufferView":29,
			"componentType":5126,
			"count":4860,
			"type":"VEC3",
			"min":[-4.60425091,-3.17199016,-3.13862896
			],
			"max":[3.74268746,3.49041247,3.42658949
			]
		},
		{
			"bufferView":30,
			"componentType":5126,
			"count":4860,
			"type":"VEC3",
			"min":[-4.91337013,-3.20358801,-3.26539588
			],
			"max":[3.93132544,3.59693432,3.38975143
			]
		},
		{
			"bufferView":31,
			"componentType":5126,
			"count":4860,
			"type":"VEC3",
			"min":[-4.95862007,-3.24214435,-3.21201539
			],
			"max":[4.02546024,3.61589122,3.36840582
			]
		},
		{
			"bufferView":32,
			"componentType":5126,
			"count":4860,
			"type":"VEC3",
			"min":[-4.92003965,-3.52470875,-3.22780943
			],
			"max":[4.27811193,3.62326455,3.35309744
			]
		},
		{
			"bufferView":33,
			"componentType":5126,
			"count":4860,
			"type":"VEC3",
			"min":[-4.994133,-3.94886446,-3.24850917
			],
			"max":[4.40071487,3.69405389,3.30528259
			]
		},
		{
			"bufferView":34,
			"componentType":5126,
			"count":4860,
			"type":"VEC3",
			"min":[-4.99074984,-4.5484314,-3.28808331
			],
			"max":[4.57661772,3.71951389,3.23625851
			]
		},
		{
			"bufferView":35,
			"componentType":5126,
			"count":4860,
			"type":"VEC3",
			"min":[-5.06559324,-4.6206522,-3.25314021
			],
			"max":[4.62927723,3.80531669,3.29234934
			]
		},
		{
			"bufferView":36,
			"componentType":5126,
			"count":4860,
			"type":"VEC3",
			"min":[-5.03097725,-4.79332924,-3.20583606
			],
			"max":[4.59469509,3.87353635,3.21718693
			]
		},
		{
			"bufferView":37,
			"componentType":5126,
			"count":4860,
			"type":"VEC3",
			"min":[-4.93651485,-4.75675488,-3.25706792
			],
			"max":[4.34641361,3.92037272,3.14770508
			]
		},
		{
			"bufferView":38,
			"componentType":5126,
			"count":4860,
			"type":"VEC3",
			"min":[-4.80044746,-4.67183495,-3.22475624
			],
			"max":[4.34651852,3.79541254,3.34587049
			]
		},
		{
			"bufferView":39,
			"componentType":5126,
			"count":4860,
			"type":"VEC3",
			"min":[-4.70463037,-4.67528534,-3.19837999
			],
			"max":[4.32709026,3.84521341,3.44663191
			]
		},
		{
			"bufferView":40,
			"componentType":5126,
			"count":4860,
			"type":"VEC3",
			"min":[-4.63442802,-4.71424437,-3.29470253
			],
			"max":[4.28731203,3.77267456,3.43451595
			]
		},
		{
			"bufferView":41,
			"componentType":5126,
			"count":4860,
			"type":"VEC3",
			"min":[-4.65748119,-4.66692352,-3.41896915
			],
			"max":[3.99404478,3.72224545,3.57478333
			]
		},
		{
			"bufferView":42,
			"componentType":5126,
			"count":4860,
			"type":"VEC3",
			"min":[-4.42507267,-4.84445953,-3.32087135
			],
			"max":[4.062356,3.61771226,3.8701148
			]
		},
		{
			"bufferView":43,
			"componentType":5126,
			"count":4860,
			"type":"VEC3",
			"min":[-4.51683474,-4.75480461,-3.32560253
			],
			"max":[4.07125902,3.77808547,4.10355568
			]
		},
		{
			"bufferView":44,
			"componentType":5126,
			"count":4860,
			"type":"VEC3",
			"min":[-4.67546511,-4.82292843,-3.60868835
			],
			"max":[4.15550232,3.74219918,4.16456366
			]
		},
		{
			"bufferView":45,
			"componentType":5126,
			"count":4860,
			"type":"VEC3",
			"min":[-4.93983269,-5.15747166,-3.7257309
			],
			"max":[4.13469076,3.67075634,4.13234901
			]
		},
		{
			"bufferView":46,
			"componentType":5126,
			"count":4860,
			"type":"VEC3",
			"min":[-5.05663776,-5.47836733,-3.61387587
			],
			"max":[4.19975376,3.92314553,4.2143631
			]
		},
		{
			"bufferView":47,
			"componentType":5126,
			"count":4860,
			"type":"VEC3",
			"min":[-5.07131195,-5.55610752,-3.54056215
			],
			"max":[4.27702045,3.99515176,4.18742132
			]
		},
		{
			"bufferView":48,
			"componentType":5126,
			"count":4860,
			"type":"VEC3",
			"min":[-5.11722374,-5.88197231,-3.74677229
			],
			"max":[4.21996689,4.14741468,4.22330236
			]
		},
		{
			"bufferView":49,
			"componentType":5126,
			"count":4860,
			"type":"VEC3",
			"min":[-5.07200623,-6.08741665,-3.81635857
			],
			"max":[4.0709095,4.2543807,4.32553244
			]
		},
		{
			"bufferView":50,
			"componentType":5126,
			"count":4860,
			"type":"VEC3",
			"min":[-4.9873786,-6.26342297,-3.76805592
			],
			"max":[4.05163622,4.28284168,4.09715223
			]
		},
		{
			"bufferView":51,
			"componentType":5126,
			"count":4860,
			"type":"VEC3",
			"min":[-4.77533865,-6.55019569,-3.72661972
			],
			"max":[4.08809042,4.17690802,3.80037022
			]
		},
		{
			"bufferView":52,
			"componentType":5126,
			"count":4860,
			"type":"VEC3",
			"min":[-4.76225996,-6.46129417,-3.58251119
			],
			"max":[3.91944242,4.13803864,3.79079676
			]
		},
		{
			"bufferView":53,
			"componentType":5126,
			"count":4860,
			"type":"VEC3",
			"min":[-4.82803583,-6.78099966,-3.73129368
			],
			"max":[3.88558793,4.18346786,3.7512846
			]
		},
		{
			"bufferView":54,
			"componentType":5126,
			"count":4860,
			"type":"VEC3",
			"min":[-4.89841318,-6.99991655,-3.7706728
			],
			"max":[3.63860321,4.25294113,3.59477854
			]
		},
		{
			"bufferView":55,
			"componentType":5126,
			"count":4860,
			"type":"VEC3",
			"min":[-4.91456461,-7.19539261,-3.75137329
			],
			"max":[3.64652729,4.12523937,3.53608227
			]
		},
		{
			"bufferView":56,
			"componentType":5126,
			"count":4860,
			"type":"VEC3",
			"min":[-4.87843847,-7.26909018,-3.77397585
			],
			"max":[3.74054003,4.05774975,3.66717672
			]
		},
		{
			"bufferView":57,
			"componentType":5126,
			"count":4860,
			"type":"VEC3",
			"min":[-4.82551432,-7.34861994,-3.8524406
			],
			"max":[3.87959051,3.90090823,3.8465519
			]
		},
		{
			"bufferView":58,
			"componentType":5126,
			"count":4860,
			"type":"VEC3",
			"min":[-4.79533339,-7.62233782,-3.87317395
			],
			"max":[4.13892317,3.86587906,3.99865723
			]
		},
		{
			"bufferView":59,
			"componentType":5126,
			"count":4860,
			"type":"VEC3",
			"min":[-4.97079039,-7.48391438,-3.87519288
			],
			"max":[4.15468264,3.74631429,4.26941586
			]
		},
		{
			"bufferView":60,
			"componentType":5126,
			"count":4860,
			"type":"VEC3",
			"min":[-5.07017946,-7.70160484,-3.844064
			],
			"max":[4.12318897,3.65850115,4.23396969
			]
		},
		{
			"bufferView":61,
			"componentType":5126,
			"count":4860,
			"type":"VEC3",
			"min":[-5.20993471,-7.75803089,-3.85588551
			],
			"max":[4.08237696,3.6155448,4.30362701
			]
		},
		{
			"bufferView":62,
			"componentType":5126,
			"count":4860,
			"type":"VEC3",
			"min":[-5.17052698,-7.51563168,-3.85105991
			],
			"max":[3.87560248,3.55092287,4.41120052
			]
		},
		{
			"bufferView":63,
			"componentType":5126,
			"count":4860,
			"type":"VEC3",
			"min":[-5.12958002,-7.17308807,-3.69202852
			],
			"max":[4.04573822,3.43572903,4.43318844
			]
		},
		{
			"componentType":5126,
			"count":3540,
			"type":"SCALAR",
			"sparse":{
				"count":59,
				"values":{
					"bufferView":65
				},
				"indices":{
					"bufferView":64,
					"componentType":5125
				}
			},
			"min":[0
			],
			"max":[1
			]
		},
		{
			"bufferView":66,
			"componentType":5126,
			"count":60,
			"type":"SCALAR",
			"min":[0
			],
			"max":[2.45833325
			]
		}
	],
	"buffers":[
		{
			"uri":"outputfinal_data.bin",
			"byteLength":3732472,
			"name":"main_buffer"
		}
	],
	"bufferViews":[
		{
			"buffer":0,
			"byteLength":57600,
			"target":34963
		},
		{
			"buffer":0,
			"byteOffset":57600,
			"byteLength":58320,
			"target":34962
		},
		{
			"buffer":0,
			"byteOffset":115920,
			"byteLength":58320,
			"target":34962
		},
		{
			"buffer":0,
			"byteOffset":174240,
			"byteLength":77760,
			"target":34962
		},
		{
			"buffer":0,
			"byteOffset":252000,
			"byteLength":38880,
			"target":34962
		},
		{
			"buffer":0,
			"byteOffset":290880,
			"byteLength":58320,
			"target":34962
		},
		{
			"buffer":0,
			"byteOffset":349200,
			"byteLength":58320,
			"target":34962
		},
		{
			"buffer":0,
			"byteOffset":407520,
			"byteLength":58320,
			"target":34962
		},
		{
			"buffer":0,
			"byteOffset":465840,
			"byteLength":58320,
			"target":34962
		},
		{
			"buffer":0,
			"byteOffset":524160,
			"byteLength":58320,
			"target":34962
		},
		{
			"buffer":0,
			"byteOffset":582480,
			"byteLength":58320,
			"target":34962
		},
		{
			"buffer":0,
			"byteOffset":640800,
			"byteLength":58320,
			"target":34962
		},
		{
			"buffer":0,
			"byteOffset":699120,
			"byteLength":58320,
			"target":34962
		},
		{
			"buffer":0,
			"byteOffset":757440,
			"byteLength":58320,
			"target":34962
		},
		{
			"buffer":0,
			"byteOffset":815760,
			"byteLength":58320,
			"target":34962
		},
		{
			"buffer":0,
			"byteOffset":874080,
			"byteLength":58320,
			"target":34962
		},
		{
			"buffer":0,
			"byteOffset":932400,
			"byteLength":58320,
			"target":34962
		},
		{
			"buffer":0,
			"byteOffset":990720,
			"byteLength":58320,
			"target":34962
		},
		{
			"buffer":0,
			"byteOffset":1049040,
			"byteLength":58320,
			"target":34962
		},
		{
			"buffer":0,
			"byteOffset":1107360,
			"byteLength":58320,
			"target":34962
		},
		{
			"buffer":0,
			"byteOffset":1165680,
			"byteLength":58320,
			"target":34962
		},
		{
			"buffer":0,
			"byteOffset":1224000,
			"byteLength":58320,
			"target":34962
		},
		{
			"buffer":0,
			"byteOffset":1282320,
			"byteLength":58320,
			"target":34962
		},
		{
			"buffer":0,
			"byteOffset":1340640,
			"byteLength":58320,
			"target":34962
		},
		{
			"buffer":0,
			"byteOffset":1398960,
			"byteLength":58320,
			"target":34962
		},
		{
			"buffer":0,
			"byteOffset":1457280,
			"byteLength":58320,
			"target":34962
		},
		{
			"buffer":0,
			"byteOffset":1515600,
			"byteLength":58320,
			"target":34962
		},
		{
			"buffer":0,
			"byteOffset":1573920,
			"byteLength":58320,
			"target":34962
		},
		{
			"buffer":0,
			"byteOffset":1632240,
			"byteLength":58320,
			"target":34962
		},
		{
			"buffer":0,
			"byteOffset":1690560,
			"byteLength":58320,
			"target":34962
		},
		{
			"buffer":0,
			"byteOffset":1748880,
			"byteLength":58320,
			"target":34962
		},
		{
			"buffer":0,
			"byteOffset":1807200,
			"byteLength":58320,
			"target":34962
		},
		{
			"buffer":0,
			"byteOffset":1865520,
			"byteLength":58320,
			"target":34962
		},
		{
			"buffer":0,
			"byteOffset":1923840,
			"byteLength":58320,
			"target":34962
		},
		{
			"buffer":0,
			"byteOffset":1982160,
			"byteLength":58320,
			"target":34962
		},
		{
			"buffer":0,
			"byteOffset":2040480,
			"byteLength":58320,
			"target":34962
		},
		{
			"buffer":0,
			"byteOffset":2098800,
			"byteLength":58320,
			"target":34962
		},
		{
			"buffer":0,
			"byteOffset":2157120,
			"byteLength":58320,
			"target":34962
		},
		{
			"buffer":0,
			"byteOffset":2215440,
			"byteLength":58320,
			"target":34962
		},
		{
			"buffer":0,
			"byteOffset":2273760,
			"byteLength":58320,
			"target":34962
		},
		{
			"buffer":0,
			"byteOffset":2332080,
			"byteLength":58320,
			"target":34962
		},
		{
			"buffer":0,
			"byteOffset":2390400,
			"byteLength":58320,
			"target":34962
		},
		{
			"buffer":0,
			"byteOffset":2448720,
			"byteLength":58320,
			"target":34962
		},
		{
			"buffer":0,
			"byteOffset":2507040,
			"byteLength":58320,
			"target":34962
		},
		{
			"buffer":0,
			"byteOffset":2565360,
			"byteLength":58320,
			"target":34962
		},
		{
			"buffer":0,
			"byteOffset":2623680,
			"byteLength":58320,
			"target":34962
		},
		{
			"buffer":0,
			"byteOffset":2682000,
			"byteLength":58320,
			"target":34962
		},
		{
			"buffer":0,
			"byteOffset":2740320,
			"byteLength":58320,
			"target":34962
		},
		{
			"buffer":0,
			"byteOffset":2798640,
			"byteLength":58320,
			"target":34962
		},
		{
			"buffer":0,
			"byteOffset":2856960,
			"byteLength":58320,
			"target":34962
		},
		{
			"buffer":0,
			"byteOffset":2915280,
			"byteLength":58320,
			"target":34962
		},
		{
			"buffer":0,
			"byteOffset":2973600,
			"byteLength":58320,
			"target":34962
		},
		{
			"buffer":0,
			"byteOffset":3031920,
			"byteLength":58320,
			"target":34962
		},
		{
			"buffer":0,
			"byteOffset":3090240,
			"byteLength":58320,
			"target":34962
		},
		{
			"buffer":0,
			"byteOffset":3148560,
			"byteLength":58320,
			"target":34962
		},
		{
			"buffer":0,
			"byteOffset":3206880,
			"byteLength":58320,
			"target":34962
		},
		{
			"buffer":0,
			"byteOffset":3265200,
			"byteLength":58320,
			"target":34962
		},
		{
			"buffer":0,
			"byteOffset":3323520,
			"byteLength":58320,
			"target":34962
		},
		{
			"buffer":0,
			"byteOffset":3381840,
			"byteLength":58320,
			"target":34962
		},
		{
			"buffer":0,
			"byteOffset":3440160,
			"byteLength":58320,
			"target":34962
		},
		{
			"buffer":0,
			"byteOffset":3498480,
			"byteLength":58320,
			"target":34962
		},
		{
			"buffer":0,
			"byteOffset":3556800,
			"byteLength":58320,
			"target":34962
		},
		{
			"buffer":0,
			"byteOffset":3615120,
			"byteLength":58320,
			"target":34962
		},
		{
			"buffer":0,
			"byteOffset":3673440,
			"byteLength":58320,
			"target":34962
		},
		{
			"buffer":0,
			"byteOffset":3731760,
			"byteLength":236
		},
		{
			"buffer":0,
			"byteOffset":3731996,
			"byteLength":236
		},
		{
			"buffer":0,
			"byteOffset":3732232,
			"byteLength":240
		}
	],
	"nodes":[
		{
			"name":"metaballs",
			"mesh":0
		}
	],
	"meshes":[
		{
			"primitives":[
				{
					"attributes":{
						"TEXCOORD_0":4,
						"TANGENT":3,
						"POSITION":1,
						"NORMAL":2
					},
					"indices":0,
					"targets":[
						{
							"POSITION":5
						},
						{
							"POSITION":6
						},
						{
							"POSITION":7
						},
						{
							"POSITION":8
						},
						{
							"POSITION":9
						},
						{
							"POSITION":10
						},
						{
							"POSITION":11
						},
						{
							"POSITION":12
						},
						{
							"POSITION":13
						},
						{
							"POSITION":14
						},
						{
							"POSITION":15
						},
						{
							"POSITION":16
						},
						{
							"POSITION":17
						},
						{
							"POSITION":18
						},
						{
							"POSITION":19
						},
						{
							"POSITION":20
						},
						{
							"POSITION":21
						},
						{
							"POSITION":22
						},
						{
							"POSITION":23
						},
						{
							"POSITION":24
						},
						{
							"POSITION":25
						},
						{
							"POSITION":26
						},
						{
							"POSITION":27
						},
						{
							"POSITION":28
						},
						{
							"POSITION":29
						},
						{
							"POSITION":30
						},
						{
							"POSITION":31
						},
						{
							"POSITION":32
						},
						{
							"POSITION":33
						},
						{
							"POSITION":34
						},
						{
							"POSITION":35
						},
						{
							"POSITION":36
						},
						{
							"POSITION":37
						},
						{
							"POSITION":38
						},
						{
							"POSITION":39
						},
						{
							"POSITION":40
						},
						{
							"POSITION":41
						},
						{
							"POSITION":42
						},
						{
							"POSITION":43
						},
						{
							"POSITION":44
						},
						{
							"POSITION":45
						},
						{
							"POSITION":46
						},
						{
							"POSITION":47
						},
						{
							"POSITION":48
						},
						{
							"POSITION":49
						},
						{
							"POSITION":50
						},
						{
							"POSITION":51
						},
						{
							"POSITION":52
						},
						{
							"POSITION":53
						},
						{
							"POSITION":54
						},
						{
							"POSITION":55
						},
						{
							"POSITION":56
						},
						{
							"POSITION":57
						},
						{
							"POSITION":58
						},
						{
							"POSITION":59
						},
						{
							"POSITION":60
						},
						{
							"POSITION":61
						},
						{
							"POSITION":62
						},
						{
							"POSITION":63
						}
					]
				}
			],
			"name":"uvtexture1",
			"extras":{
				"targetNames":["","","","","","","","","","","","","","","","","","","","","","","","","","","","","","","","","","","","","","","","","","","","","","","","","","","","","","","","","","",""
				]
			}
		}
	],
	"scenes":[
		{
			"nodes":[0
			]
		}
	],
	"scene":0
}
