{
	"asset":{
		"version":"2.0",
		"generator":"Houdini GLTF 2.0 Exporter"
	},
	"animations":[
		{
			"channels":[
				{
					"target":{
						"node":0,
						"path":"weights"
					},
					"sampler":0
				}
			],
			"samplers":[
				{
					"input":65,
					"interpolation":"LINEAR",
					"output":64
				}
			]
		}
	],
	"accessors":[
		{
			"bufferView":0,
			"componentType":5125,
			"count":124710,
			"type":"SCALAR",
			"min":[0
			],
			"max":[83139
			]
		},
		{
			"bufferView":1,
			"componentType":5126,
			"count":83140,
			"type":"VEC3",
			"min":[-4.95754099,-3.49527264,-4.90501308
			],
			"max":[4.92156553,3.55815864,1.98682368
			]
		},
		{
			"bufferView":2,
			"componentType":5126,
			"count":83140,
			"type":"VEC2",
			"min":[-0.000560950371,0.00645583868
			],
			"max":[1.00229955,1
			]
		},
		{
			"bufferView":3,
			"componentType":5126,
			"count":83140,
			"type":"VEC3",
			"min":[-1,-1,-1
			],
			"max":[1,1,1
			]
		},
		{
			"bufferView":4,
			"componentType":5126,
			"count":83140,
			"type":"VEC4",
			"min":[1,0,0,1
			],
			"max":[1,0,0,1
			]
		},
		{
			"bufferView":5,
			"componentType":5126,
			"count":83140,
			"type":"VEC3",
			"min":[-0.747410059,-0.515030384,-1.11659384
			],
			"max":[0.739827871,0.589423478,0.721744061
			]
		},
		{
			"bufferView":6,
			"componentType":5126,
			"count":83140,
			"type":"VEC3",
			"min":[-0.771614075,-0.616055965,-0.987725973
			],
			"max":[0.720318794,0.618998528,0.722245455
			]
		},
		{
			"bufferView":7,
			"componentType":5126,
			"count":83140,
			"type":"VEC3",
			"min":[-0.782726765,-0.616055965,-0.978026867
			],
			"max":[0.742630482,0.714538932,0.723980427
			]
		},
		{
			"bufferView":8,
			"componentType":5126,
			"count":83140,
			"type":"VEC3",
			"min":[-0.803125858,-0.616055965,-0.977535248
			],
			"max":[0.747756004,0.629995584,0.769687176
			]
		},
		{
			"bufferView":9,
			"componentType":5126,
			"count":83140,
			"type":"VEC3",
			"min":[-0.81018877,-0.580728233,-1.06368518
			],
			"max":[0.740550041,0.693340182,0.966614962
			]
		},
		{
			"bufferView":10,
			"componentType":5126,
			"count":83140,
			"type":"VEC3",
			"min":[-0.790227056,-0.616592407,-1.06321287
			],
			"max":[0.751750946,0.714538932,0.966275454
			]
		},
		{
			"bufferView":11,
			"componentType":5126,
			"count":83140,
			"type":"VEC3",
			"min":[-0.703519344,-0.693380594,-1.0439384
			],
			"max":[0.783812046,0.714538932,0.966334343
			]
		},
		{
			"bufferView":12,
			"componentType":5126,
			"count":83140,
			"type":"VEC3",
			"min":[-0.701740026,-0.739452958,-1.03383136
			],
			"max":[0.774550915,0.678005338,1.10524821
			]
		},
		{
			"bufferView":13,
			"componentType":5126,
			"count":83140,
			"type":"VEC3",
			"min":[-0.700490713,-0.786338449,-1.02563381
			],
			"max":[0.786002159,0.7277354,1.1476059
			]
		},
		{
			"bufferView":14,
			"componentType":5126,
			"count":83140,
			"type":"VEC3",
			"min":[-0.720177174,-0.831630588,-1.01956964
			],
			"max":[0.797600746,0.829250813,1.14721847
			]
		},
		{
			"bufferView":15,
			"componentType":5126,
			"count":83140,
			"type":"VEC3",
			"min":[-0.720177174,-0.886745453,-1.01556563
			],
			"max":[0.810085773,0.892215729,1.15340304
			]
		},
		{
			"bufferView":16,
			"componentType":5126,
			"count":83140,
			"type":"VEC3",
			"min":[-0.734657764,-0.919224501,-0.97653532
			],
			"max":[0.844818115,1.0414896,1.16012907
			]
		},
		{
			"bufferView":17,
			"componentType":5126,
			"count":83140,
			"type":"VEC3",
			"min":[-0.735106945,-0.966839194,-0.970976114
			],
			"max":[0.87094152,0.721561551,1.15602136
			]
		},
		{
			"bufferView":18,
			"componentType":5126,
			"count":83140,
			"type":"VEC3",
			"min":[-0.735106945,-0.969721437,-0.97529006
			],
			"max":[0.913484335,0.759434462,1.16441417
			]
		},
		{
			"bufferView":19,
			"componentType":5126,
			"count":83140,
			"type":"VEC3",
			"min":[-0.775481939,-0.977381229,-0.975097418
			],
			"max":[0.922170758,0.764016628,1.17764091
			]
		},
		{
			"bufferView":20,
			"componentType":5126,
			"count":83140,
			"type":"VEC3",
			"min":[-0.774432003,-0.988984227,-0.977245331
			],
			"max":[0.94796896,0.793829501,1.1613214
			]
		},
		{
			"bufferView":21,
			"componentType":5126,
			"count":83140,
			"type":"VEC3",
			"min":[-0.789343715,-0.999991179,-1.03875232
			],
			"max":[0.95492065,0.826548874,1.14098287
			]
		},
		{
			"bufferView":22,
			"componentType":5126,
			"count":83140,
			"type":"VEC3",
			"min":[-0.805418432,-1.01043153,-0.981411695
			],
			"max":[0.970664501,0.857962132,1.13419747
			]
		},
		{
			"bufferView":23,
			"componentType":5126,
			"count":83140,
			"type":"VEC3",
			"min":[-0.815958261,-1.0203526,-0.961925745
			],
			"max":[0.969611883,0.887837529,1.13016033
			]
		},
		{
			"bufferView":24,
			"componentType":5126,
			"count":83140,
			"type":"VEC3",
			"min":[-0.828507662,-1.02980983,-0.9403162
			],
			"max":[0.963934422,0.90106982,1.12638831
			]
		},
		{
			"bufferView":25,
			"componentType":5126,
			"count":83140,
			"type":"VEC3",
			"min":[-0.834462762,-1.05199981,-0.930568695
			],
			"max":[0.958461702,0.926989615,1.11683559
			]
		},
		{
			"bufferView":26,
			"componentType":5126,
			"count":83140,
			"type":"VEC3",
			"min":[-0.883935928,-1.06107259,-0.902238846
			],
			"max":[0.933594406,0.993927658,1.10765886
			]
		},
		{
			"bufferView":27,
			"componentType":5126,
			"count":83140,
			"type":"VEC3",
			"min":[-0.884549141,-1.07047057,-0.881987333
			],
			"max":[0.91890192,1.01167226,1.11575413
			]
		},
		{
			"bufferView":28,
			"componentType":5126,
			"count":83140,
			"type":"VEC3",
			"min":[-0.884129286,-1.07931149,-0.86124754
			],
			"max":[0.920392871,1.02612376,1.1087327
			]
		},
		{
			"bufferView":29,
			"componentType":5126,
			"count":83140,
			"type":"VEC3",
			"min":[-0.913710356,-1.08762026,-0.870136976
			],
			"max":[0.955109477,1.03694201,1.10218883
			]
		},
		{
			"bufferView":30,
			"componentType":5126,
			"count":83140,
			"type":"VEC3",
			"min":[-0.937559366,-1.09539175,-0.88086319
			],
			"max":[0.97109139,1.04381728,1.0960865
			]
		},
		{
			"bufferView":31,
			"componentType":5126,
			"count":83140,
			"type":"VEC3",
			"min":[-0.936528921,-1.10258842,-0.878028631
			],
			"max":[1.00078332,1.04649115,1.0903914
			]
		},
		{
			"bufferView":32,
			"componentType":5126,
			"count":83140,
			"type":"VEC3",
			"min":[-0.935216904,-1.1091367,-0.934278488
			],
			"max":[1.01845646,1.04476929,1.08507609
			]
		},
		{
			"bufferView":33,
			"componentType":5126,
			"count":83140,
			"type":"VEC3",
			"min":[-0.933606148,-1.11492884,-0.918001175
			],
			"max":[1.02879691,1.03853917,1.07926726
			]
		},
		{
			"bufferView":34,
			"componentType":5126,
			"count":83140,
			"type":"VEC3",
			"min":[-0.938743591,-1.11982453,-0.984663963
			],
			"max":[1.09952533,1.02778614,1.0535655
			]
		},
		{
			"bufferView":35,
			"componentType":5126,
			"count":83140,
			"type":"VEC3",
			"min":[-0.962458372,-1.1236546,-1.00310779
			],
			"max":[1.09850502,1.01260126,1.06023026
			]
		},
		{
			"bufferView":36,
			"componentType":5126,
			"count":83140,
			"type":"VEC3",
			"min":[-0.980009317,-1.12417161,-0.981569767
			],
			"max":[1.09447694,0.993192792,1.05187917
			]
		},
		{
			"bufferView":37,
			"componentType":5126,
			"count":83140,
			"type":"VEC3",
			"min":[-0.979820251,-1.11397076,-1.01760197
			],
			"max":[1.06406033,0.969892561,1.05187917
			]
		},
		{
			"bufferView":38,
			"componentType":5126,
			"count":83140,
			"type":"VEC3",
			"min":[-0.977660179,-1.11419404,-1.00716472
			],
			"max":[1.06432986,0.957369983,1.01243997
			]
		},
		{
			"bufferView":39,
			"componentType":5126,
			"count":83140,
			"type":"VEC3",
			"min":[-0.977463245,-1.11268163,-1.0507338
			],
			"max":[1.0693996,0.94557178,1.00702524
			]
		},
		{
			"bufferView":40,
			"componentType":5126,
			"count":83140,
			"type":"VEC3",
			"min":[-0.977323771,-1.10927749,-1.02741838
			],
			"max":[1.02270401,0.932159066,1.00212145
			]
		},
		{
			"bufferView":41,
			"componentType":5126,
			"count":83140,
			"type":"VEC3",
			"min":[-0.945394754,-1.10386121,-1.03289008
			],
			"max":[1.01838255,0.91764456,0.997819185
			]
		},
		{
			"bufferView":42,
			"componentType":5126,
			"count":83140,
			"type":"VEC3",
			"min":[-0.944946766,-1.10047817,-1.03209329
			],
			"max":[0.995493412,0.909425557,0.994215965
			]
		},
		{
			"bufferView":43,
			"componentType":5126,
			"count":83140,
			"type":"VEC3",
			"min":[-0.936534166,-1.10708094,-1.03428602
			],
			"max":[0.997770488,0.902445495,1.10259271
			]
		},
		{
			"bufferView":44,
			"componentType":5126,
			"count":83140,
			"type":"VEC3",
			"min":[-0.936056614,-1.11196649,-1.05400229
			],
			"max":[0.922138631,0.893164158,1.16499877
			]
		},
		{
			"bufferView":45,
			"componentType":5126,
			"count":83140,
			"type":"VEC3",
			"min":[-0.914448023,-1.11497557,-1.04474568
			],
			"max":[0.87684834,0.883926511,1.16403902
			]
		},
		{
			"bufferView":46,
			"componentType":5126,
			"count":83140,
			"type":"VEC3",
			"min":[-0.931572795,-1.11601388,-0.994174719
			],
			"max":[0.879690647,0.87480104,1.19206524
			]
		},
		{
			"bufferView":47,
			"componentType":5126,
			"count":83140,
			"type":"VEC3",
			"min":[-0.940765083,-1.11504281,-0.96818018
			],
			"max":[0.855968595,0.86578536,1.19110489
			]
		},
		{
			"bufferView":48,
			"componentType":5126,
			"count":83140,
			"type":"VEC3",
			"min":[-0.941991091,-1.11207211,-0.949580908
			],
			"max":[0.841401339,0.88904798,1.00395417
			]
		},
		{
			"bufferView":49,
			"componentType":5126,
			"count":83140,
			"type":"VEC3",
			"min":[-0.939385653,-1.10714984,-1.02809334
			],
			"max":[0.838232458,0.891995311,1.0021348
			]
		},
		{
			"bufferView":50,
			"componentType":5126,
			"count":83140,
			"type":"VEC3",
			"min":[-0.929114461,-1.10035121,-0.981122732
			],
			"max":[0.837933123,0.904461265,1.00070739
			]
		},
		{
			"bufferView":51,
			"componentType":5126,
			"count":83140,
			"type":"VEC3",
			"min":[-0.912042141,-1.09729683,-1.02540994
			],
			"max":[0.837505221,0.922593713,0.999722719
			]
		},
		{
			"bufferView":52,
			"componentType":5126,
			"count":83140,
			"type":"VEC3",
			"min":[-0.894498229,-1.10848176,-1.0368259
			],
			"max":[0.836895108,0.932867169,0.999220848
			]
		},
		{
			"bufferView":53,
			"componentType":5126,
			"count":83140,
			"type":"VEC3",
			"min":[-0.892421424,-1.12011945,-1.04063225
			],
			"max":[0.836068451,0.937080503,0.99923563
			]
		},
		{
			"bufferView":54,
			"componentType":5126,
			"count":83140,
			"type":"VEC3",
			"min":[-0.853088677,-1.12919641,-1.04015398
			],
			"max":[0.835008204,0.935148835,1.02987623
			]
		},
		{
			"bufferView":55,
			"componentType":5126,
			"count":83140,
			"type":"VEC3",
			"min":[-0.828359365,-1.13491201,-1.0812614
			],
			"max":[0.833711863,0.928096652,1.02269363
			]
		},
		{
			"bufferView":56,
			"componentType":5126,
			"count":83140,
			"type":"VEC3",
			"min":[-0.829477549,-1.137959,-1.08199501
			],
			"max":[0.83218658,0.916474462,1.02413368
			]
		},
		{
			"bufferView":57,
			"componentType":5126,
			"count":83140,
			"type":"VEC3",
			"min":[-0.822520018,-1.13354659,-1.08083487
			],
			"max":[0.803186655,0.916483164,0.994253159
			]
		},
		{
			"bufferView":58,
			"componentType":5126,
			"count":83140,
			"type":"VEC3",
			"min":[-0.81851244,-1.14499378,-1.03808904
			],
			"max":[0.800728798,0.916483164,0.978047371
			]
		},
		{
			"bufferView":59,
			"componentType":5126,
			"count":83140,
			"type":"VEC3",
			"min":[-0.814411402,-1.14062107,-1.03732538
			],
			"max":[0.805258214,0.916483164,0.981170416
			]
		},
		{
			"bufferView":60,
			"componentType":5126,
			"count":83140,
			"type":"VEC3",
			"min":[-0.83348316,-1.13448286,-1.03646803
			],
			"max":[0.798674941,0.916483164,0.983508587
			]
		},
		{
			"bufferView":61,
			"componentType":5126,
			"count":83140,
			"type":"VEC3",
			"min":[-0.854802728,-1.12623727,-1.03241229
			],
			"max":[0.797715068,0.937585354,0.986094475
			]
		},
		{
			"bufferView":62,
			"componentType":5126,
			"count":83140,
			"type":"VEC3",
			"min":[-0.887263775,-1.13182664,-1.03067088
			],
			"max":[0.796765924,0.937585354,0.988899946
			]
		},
		{
			"bufferView":63,
			"componentType":5126,
			"count":83140,
			"type":"VEC3",
			"min":[-0.919218659,-1.13320982,-1.02858591
			],
			"max":[0.812643051,0.917229772,0.973322153
			]
		},
		{
			"componentType":5126,
			"count":3540,
			"type":"SCALAR",
			"sparse":{
				"count":59,
				"values":{
					"bufferView":65
				},
				"indices":{
					"bufferView":64,
					"componentType":5125
				}
			},
			"min":[0
			],
			"max":[1
			]
		},
		{
			"bufferView":66,
			"componentType":5126,
			"count":60,
			"type":"SCALAR",
			"min":[0
			],
			"max":[2.45833325
			]
		}
	],
	"buffers":[
		{
			"uri":"tailbone_data.bin",
			"byteLength":63353392,
			"name":"main_buffer"
		}
	],
	"bufferViews":[
		{
			"buffer":0,
			"byteLength":498840,
			"target":34963
		},
		{
			"buffer":0,
			"byteOffset":498840,
			"byteLength":997680,
			"target":34962
		},
		{
			"buffer":0,
			"byteOffset":1496520,
			"byteLength":665120,
			"target":34962
		},
		{
			"buffer":0,
			"byteOffset":2161640,
			"byteLength":997680,
			"target":34962
		},
		{
			"buffer":0,
			"byteOffset":3159320,
			"byteLength":1330240,
			"target":34962
		},
		{
			"buffer":0,
			"byteOffset":4489560,
			"byteLength":997680,
			"target":34962
		},
		{
			"buffer":0,
			"byteOffset":5487240,
			"byteLength":997680,
			"target":34962
		},
		{
			"buffer":0,
			"byteOffset":6484920,
			"byteLength":997680,
			"target":34962
		},
		{
			"buffer":0,
			"byteOffset":7482600,
			"byteLength":997680,
			"target":34962
		},
		{
			"buffer":0,
			"byteOffset":8480280,
			"byteLength":997680,
			"target":34962
		},
		{
			"buffer":0,
			"byteOffset":9477960,
			"byteLength":997680,
			"target":34962
		},
		{
			"buffer":0,
			"byteOffset":10475640,
			"byteLength":997680,
			"target":34962
		},
		{
			"buffer":0,
			"byteOffset":11473320,
			"byteLength":997680,
			"target":34962
		},
		{
			"buffer":0,
			"byteOffset":12471000,
			"byteLength":997680,
			"target":34962
		},
		{
			"buffer":0,
			"byteOffset":13468680,
			"byteLength":997680,
			"target":34962
		},
		{
			"buffer":0,
			"byteOffset":14466360,
			"byteLength":997680,
			"target":34962
		},
		{
			"buffer":0,
			"byteOffset":15464040,
			"byteLength":997680,
			"target":34962
		},
		{
			"buffer":0,
			"byteOffset":16461720,
			"byteLength":997680,
			"target":34962
		},
		{
			"buffer":0,
			"byteOffset":17459400,
			"byteLength":997680,
			"target":34962
		},
		{
			"buffer":0,
			"byteOffset":18457080,
			"byteLength":997680,
			"target":34962
		},
		{
			"buffer":0,
			"byteOffset":19454760,
			"byteLength":997680,
			"target":34962
		},
		{
			"buffer":0,
			"byteOffset":20452440,
			"byteLength":997680,
			"target":34962
		},
		{
			"buffer":0,
			"byteOffset":21450120,
			"byteLength":997680,
			"target":34962
		},
		{
			"buffer":0,
			"byteOffset":22447800,
			"byteLength":997680,
			"target":34962
		},
		{
			"buffer":0,
			"byteOffset":23445480,
			"byteLength":997680,
			"target":34962
		},
		{
			"buffer":0,
			"byteOffset":24443160,
			"byteLength":997680,
			"target":34962
		},
		{
			"buffer":0,
			"byteOffset":25440840,
			"byteLength":997680,
			"target":34962
		},
		{
			"buffer":0,
			"byteOffset":26438520,
			"byteLength":997680,
			"target":34962
		},
		{
			"buffer":0,
			"byteOffset":27436200,
			"byteLength":997680,
			"target":34962
		},
		{
			"buffer":0,
			"byteOffset":28433880,
			"byteLength":997680,
			"target":34962
		},
		{
			"buffer":0,
			"byteOffset":29431560,
			"byteLength":997680,
			"target":34962
		},
		{
			"buffer":0,
			"byteOffset":30429240,
			"byteLength":997680,
			"target":34962
		},
		{
			"buffer":0,
			"byteOffset":31426920,
			"byteLength":997680,
			"target":34962
		},
		{
			"buffer":0,
			"byteOffset":32424600,
			"byteLength":997680,
			"target":34962
		},
		{
			"buffer":0,
			"byteOffset":33422280,
			"byteLength":997680,
			"target":34962
		},
		{
			"buffer":0,
			"byteOffset":34419960,
			"byteLength":997680,
			"target":34962
		},
		{
			"buffer":0,
			"byteOffset":35417640,
			"byteLength":997680,
			"target":34962
		},
		{
			"buffer":0,
			"byteOffset":36415320,
			"byteLength":997680,
			"target":34962
		},
		{
			"buffer":0,
			"byteOffset":37413000,
			"byteLength":997680,
			"target":34962
		},
		{
			"buffer":0,
			"byteOffset":38410680,
			"byteLength":997680,
			"target":34962
		},
		{
			"buffer":0,
			"byteOffset":39408360,
			"byteLength":997680,
			"target":34962
		},
		{
			"buffer":0,
			"byteOffset":40406040,
			"byteLength":997680,
			"target":34962
		},
		{
			"buffer":0,
			"byteOffset":41403720,
			"byteLength":997680,
			"target":34962
		},
		{
			"buffer":0,
			"byteOffset":42401400,
			"byteLength":997680,
			"target":34962
		},
		{
			"buffer":0,
			"byteOffset":43399080,
			"byteLength":997680,
			"target":34962
		},
		{
			"buffer":0,
			"byteOffset":44396760,
			"byteLength":997680,
			"target":34962
		},
		{
			"buffer":0,
			"byteOffset":45394440,
			"byteLength":997680,
			"target":34962
		},
		{
			"buffer":0,
			"byteOffset":46392120,
			"byteLength":997680,
			"target":34962
		},
		{
			"buffer":0,
			"byteOffset":47389800,
			"byteLength":997680,
			"target":34962
		},
		{
			"buffer":0,
			"byteOffset":48387480,
			"byteLength":997680,
			"target":34962
		},
		{
			"buffer":0,
			"byteOffset":49385160,
			"byteLength":997680,
			"target":34962
		},
		{
			"buffer":0,
			"byteOffset":50382840,
			"byteLength":997680,
			"target":34962
		},
		{
			"buffer":0,
			"byteOffset":51380520,
			"byteLength":997680,
			"target":34962
		},
		{
			"buffer":0,
			"byteOffset":52378200,
			"byteLength":997680,
			"target":34962
		},
		{
			"buffer":0,
			"byteOffset":53375880,
			"byteLength":997680,
			"target":34962
		},
		{
			"buffer":0,
			"byteOffset":54373560,
			"byteLength":997680,
			"target":34962
		},
		{
			"buffer":0,
			"byteOffset":55371240,
			"byteLength":997680,
			"target":34962
		},
		{
			"buffer":0,
			"byteOffset":56368920,
			"byteLength":997680,
			"target":34962
		},
		{
			"buffer":0,
			"byteOffset":57366600,
			"byteLength":997680,
			"target":34962
		},
		{
			"buffer":0,
			"byteOffset":58364280,
			"byteLength":997680,
			"target":34962
		},
		{
			"buffer":0,
			"byteOffset":59361960,
			"byteLength":997680,
			"target":34962
		},
		{
			"buffer":0,
			"byteOffset":60359640,
			"byteLength":997680,
			"target":34962
		},
		{
			"buffer":0,
			"byteOffset":61357320,
			"byteLength":997680,
			"target":34962
		},
		{
			"buffer":0,
			"byteOffset":62355000,
			"byteLength":997680,
			"target":34962
		},
		{
			"buffer":0,
			"byteOffset":63352680,
			"byteLength":236
		},
		{
			"buffer":0,
			"byteOffset":63352916,
			"byteLength":236
		},
		{
			"buffer":0,
			"byteOffset":63353152,
			"byteLength":240
		}
	],
	"nodes":[
		{
			"name":"geo2",
			"mesh":0
		}
	],
	"meshes":[
		{
			"primitives":[
				{
					"attributes":{
						"TANGENT":4,
						"TEXCOORD_0":2,
						"POSITION":1,
						"NORMAL":3
					},
					"indices":0,
					"targets":[
						{
							"POSITION":5
						},
						{
							"POSITION":6
						},
						{
							"POSITION":7
						},
						{
							"POSITION":8
						},
						{
							"POSITION":9
						},
						{
							"POSITION":10
						},
						{
							"POSITION":11
						},
						{
							"POSITION":12
						},
						{
							"POSITION":13
						},
						{
							"POSITION":14
						},
						{
							"POSITION":15
						},
						{
							"POSITION":16
						},
						{
							"POSITION":17
						},
						{
							"POSITION":18
						},
						{
							"POSITION":19
						},
						{
							"POSITION":20
						},
						{
							"POSITION":21
						},
						{
							"POSITION":22
						},
						{
							"POSITION":23
						},
						{
							"POSITION":24
						},
						{
							"POSITION":25
						},
						{
							"POSITION":26
						},
						{
							"POSITION":27
						},
						{
							"POSITION":28
						},
						{
							"POSITION":29
						},
						{
							"POSITION":30
						},
						{
							"POSITION":31
						},
						{
							"POSITION":32
						},
						{
							"POSITION":33
						},
						{
							"POSITION":34
						},
						{
							"POSITION":35
						},
						{
							"POSITION":36
						},
						{
							"POSITION":37
						},
						{
							"POSITION":38
						},
						{
							"POSITION":39
						},
						{
							"POSITION":40
						},
						{
							"POSITION":41
						},
						{
							"POSITION":42
						},
						{
							"POSITION":43
						},
						{
							"POSITION":44
						},
						{
							"POSITION":45
						},
						{
							"POSITION":46
						},
						{
							"POSITION":47
						},
						{
							"POSITION":48
						},
						{
							"POSITION":49
						},
						{
							"POSITION":50
						},
						{
							"POSITION":51
						},
						{
							"POSITION":52
						},
						{
							"POSITION":53
						},
						{
							"POSITION":54
						},
						{
							"POSITION":55
						},
						{
							"POSITION":56
						},
						{
							"POSITION":57
						},
						{
							"POSITION":58
						},
						{
							"POSITION":59
						},
						{
							"POSITION":60
						},
						{
							"POSITION":61
						},
						{
							"POSITION":62
						},
						{
							"POSITION":63
						}
					]
				}
			],
			"name":"null1",
			"extras":{
				"targetNames":["","","","","","","","","","","","","","","","","","","","","","","","","","","","","","","","","","","","","","","","","","","","","","","","","","","","","","","","","","",""
				]
			}
		}
	],
	"scenes":[
		{
			"nodes":[0
			]
		}
	],
	"scene":0
}
