{
	"asset":{
		"version":"2.0",
		"generator":"Houdini GLTF 2.0 Exporter"
	},
	"accessors":[
		{
			"bufferView":0,
			"componentType":5123,
			"count":7956,
			"type":"SCALAR",
			"min":[0
			],
			"max":[1327
			]
		},
		{
			"bufferView":1,
			"componentType":5126,
			"count":1328,
			"type":"VEC3",
			"min":[-1.39354444,-0.00024951814,-1.3637588
			],
			"max":[1.31903684,1.1394583,1.27357161
			]
		}
	],
	"buffers":[
		{
			"uri":"output2_data.bin",
			"byteLength":31848,
			"name":"main_buffer"
		}
	],
	"bufferViews":[
		{
			"buffer":0,
			"byteLength":15912,
			"target":34963
		},
		{
			"buffer":0,
			"byteOffset":15912,
			"byteLength":15936,
			"target":34962
		}
	],
	"nodes":[
		{
			"name":"player_path1",
			"mesh":0
		}
	],
	"meshes":[
		{
			"primitives":[
				{
					"attributes":{
						"POSITION":1
					},
					"indices":0
				}
			],
			"name":"polyextrude1"
		}
	],
	"scenes":[
		{
			"nodes":[0
			]
		}
	],
	"scene":0
}
