{
	"asset":{
		"version":"2.0",
		"generator":"Houdini GLTF 2.0 Exporter"
	},
	"accessors":[
		{
			"bufferView":0,
			"componentType":5125,
			"count":158400,
			"type":"SCALAR",
			"min":[0
			],
			"max":[66373
			]
		},
		{
			"bufferView":1,
			"componentType":5126,
			"count":66374,
			"type":"VEC3",
			"min":[-12.2450953,-1.02489948,-18.0056019
			],
			"max":[27.4498329,1.24592674,18.5767632
			]
		},
		{
			"bufferView":2,
			"componentType":5126,
			"count":66374,
			"type":"VEC3",
			"min":[0,1,0
			],
			"max":[0,1,0
			]
		},
		{
			"bufferView":3,
			"componentType":5126,
			"count":66374,
			"type":"VEC3",
			"min":[0,0,-1
			],
			"max":[0,0,-1
			]
		},
		{
			"bufferView":4,
			"componentType":5126,
			"count":66374,
			"type":"VEC4",
			"min":[-0.132419705,-0.999998629,-0.572091758,1
			],
			"max":[1,0.999999702,0.523485065,1
			]
		},
		{
			"bufferView":5,
			"componentType":5126,
			"count":66374,
			"type":"VEC3",
			"min":[-0.999574125,-0.999970853,-1
			],
			"max":[0.999593973,0.999999523,1
			]
		},
		{
			"bufferView":6,
			"componentType":5126,
			"count":66374,
			"type":"VEC2",
			"min":[0,0
			],
			"max":[1,1
			]
		}
	],
	"buffers":[
		{
			"uri":"city_roads_data.bin",
			"byteLength":5412528,
			"name":"main_buffer"
		}
	],
	"bufferViews":[
		{
			"buffer":0,
			"byteLength":633600,
			"target":34963
		},
		{
			"buffer":0,
			"byteOffset":633600,
			"byteLength":796488,
			"target":34962
		},
		{
			"buffer":0,
			"byteOffset":1430088,
			"byteLength":796488,
			"target":34962
		},
		{
			"buffer":0,
			"byteOffset":2226576,
			"byteLength":796488,
			"target":34962
		},
		{
			"buffer":0,
			"byteOffset":3023064,
			"byteLength":1061984,
			"target":34962
		},
		{
			"buffer":0,
			"byteOffset":4085048,
			"byteLength":796488,
			"target":34962
		},
		{
			"buffer":0,
			"byteOffset":4881536,
			"byteLength":530992,
			"target":34962
		}
	],
	"nodes":[
		{
			"name":"CITY_PATH",
			"mesh":0
		}
	],
	"meshes":[
		{
			"primitives":[
				{
					"attributes":{
						"_vectorLine":3,
						"_vectorUp":2,
						"TEXCOORD_0":6,
						"TANGENT":4,
						"POSITION":1,
						"NORMAL":5
					},
					"indices":0
				}
			],
			"name":"uvtexture3"
		}
	],
	"scenes":[
		{
			"nodes":[0
			]
		}
	],
	"scene":0
}
