{
	"asset":{
		"version":"2.0",
		"generator":"Houdini GLTF 2.0 Exporter"
	},
	"accessors":[
		{
			"bufferView":0,
			"componentType":5125,
			"count":132468,
			"type":"SCALAR",
			"min":[0
			],
			"max":[21923
			]
		},
		{
			"bufferView":1,
			"componentType":5126,
			"count":21924,
			"type":"VEC3",
			"min":[-2.48226905,0,-2.48232102
			],
			"max":[2.48226905,3.88199997,2.48232102
			]
		}
	],
	"buffers":[
		{
			"uri":"stage_3_path_collider_data.bin",
			"byteLength":792960,
			"name":"main_buffer"
		}
	],
	"bufferViews":[
		{
			"buffer":0,
			"byteLength":529872,
			"target":34963
		},
		{
			"buffer":0,
			"byteOffset":529872,
			"byteLength":263088,
			"target":34962
		}
	],
	"nodes":[
		{
			"name":"geo1",
			"mesh":0
		}
	],
	"meshes":[
		{
			"primitives":[
				{
					"attributes":{
						"POSITION":1
					},
					"indices":0
				}
			],
			"name":"PATH_COLLIDER_MODEL"
		}
	],
	"scenes":[
		{
			"nodes":[0
			]
		}
	],
	"scene":0
}
