{
	"asset":{
		"version":"2.0",
		"generator":"Houdini GLTF 2.0 Exporter"
	},
	"accessors":[
		{
			"bufferView":0,
			"componentType":5123,
			"count":1986,
			"type":"SCALAR",
			"min":[0
			],
			"max":[663
			]
		},
		{
			"bufferView":1,
			"componentType":5126,
			"count":664,
			"type":"VEC3",
			"min":[-1.37185049,-0.00024951814,-1.34648335
			],
			"max":[1.30643666,1.05430806,1.26574445
			]
		}
	],
	"buffers":[
		{
			"uri":"output_data.bin",
			"byteLength":11940,
			"name":"main_buffer"
		}
	],
	"bufferViews":[
		{
			"buffer":0,
			"byteLength":3972,
			"target":34963
		},
		{
			"buffer":0,
			"byteOffset":3972,
			"byteLength":7968,
			"target":34962
		}
	],
	"nodes":[
		{
			"name":"player_path",
			"mesh":0
		}
	],
	"meshes":[
		{
			"primitives":[
				{
					"attributes":{
						"POSITION":1
					},
					"indices":0
				}
			],
			"name":"null1"
		}
	],
	"scenes":[
		{
			"nodes":[0
			]
		}
	],
	"scene":0
}
