{
	"asset":{
		"version":"2.0",
		"generator":"Houdini GLTF 2.0 Exporter"
	},
	"animations":[
		{
			"channels":[
				{
					"target":{
						"node":0,
						"path":"weights"
					},
					"sampler":0
				}
			],
			"samplers":[
				{
					"input":65,
					"interpolation":"LINEAR",
					"output":64
				}
			]
		}
	],
	"accessors":[
		{
			"bufferView":0,
			"componentType":5123,
			"count":20736,
			"type":"SCALAR",
			"min":[0
			],
			"max":[3457
			]
		},
		{
			"bufferView":1,
			"componentType":5126,
			"count":3458,
			"type":"VEC3",
			"min":[-0.603825748,-0.596956491,-0.586541235
			],
			"max":[0.629501998,0.62689364,0.64024502
			]
		},
		{
			"bufferView":2,
			"componentType":5126,
			"count":3458,
			"type":"VEC3",
			"min":[-0.999982655,-0.999964118,-0.999992549
			],
			"max":[0.999951065,0.999978483,0.999981582
			]
		},
		{
			"bufferView":3,
			"componentType":5126,
			"count":3458,
			"type":"VEC4",
			"min":[0.766647995,-0.545550823,-0.419117421,1
			],
			"max":[1,0.545163989,0.576583385,1
			]
		},
		{
			"bufferView":4,
			"componentType":5126,
			"count":3458,
			"type":"VEC2",
			"min":[0,0
			],
			"max":[1,1
			]
		},
		{
			"bufferView":5,
			"componentType":5126,
			"count":3458,
			"type":"VEC3",
			"min":[-0.0370826721,-0.0353102833,-0.0417055935
			],
			"max":[0.0423599035,0.0416144729,0.0443695188
			]
		},
		{
			"bufferView":6,
			"componentType":5126,
			"count":3458,
			"type":"VEC3",
			"min":[-0.0588916168,-0.0615814924,-0.0629058778
			],
			"max":[0.0674737692,0.0660200715,0.0716972351
			]
		},
		{
			"bufferView":7,
			"componentType":5126,
			"count":3458,
			"type":"VEC3",
			"min":[-0.0708164424,-0.0709076524,-0.0764872953
			],
			"max":[0.0855292901,0.0813502669,0.094561547
			]
		},
		{
			"bufferView":8,
			"componentType":5126,
			"count":3458,
			"type":"VEC3",
			"min":[-0.081900537,-0.0867465138,-0.0819232762
			],
			"max":[0.098641634,0.0951368809,0.0972475111
			]
		},
		{
			"bufferView":9,
			"componentType":5126,
			"count":3458,
			"type":"VEC3",
			"min":[-0.0902807117,-0.0937042832,-0.0941823423
			],
			"max":[0.0964096263,0.100789577,0.0976273417
			]
		},
		{
			"bufferView":10,
			"componentType":5126,
			"count":3458,
			"type":"VEC3",
			"min":[-0.0979474783,-0.0881761611,-0.100711673
			],
			"max":[0.0957912505,0.0905659199,0.101695746
			]
		},
		{
			"bufferView":11,
			"componentType":5126,
			"count":3458,
			"type":"VEC3",
			"min":[-0.0983321071,-0.084188655,-0.10250473
			],
			"max":[0.0852124393,0.0923164487,0.108286709
			]
		},
		{
			"bufferView":12,
			"componentType":5126,
			"count":3458,
			"type":"VEC3",
			"min":[-0.0947567821,-0.0751715899,-0.114759624
			],
			"max":[0.0815194547,0.092191875,0.110062778
			]
		},
		{
			"bufferView":13,
			"componentType":5126,
			"count":3458,
			"type":"VEC3",
			"min":[-0.0883011818,-0.0802725852,-0.110781193
			],
			"max":[0.0876281261,0.0844010711,0.101691872
			]
		},
		{
			"bufferView":14,
			"componentType":5126,
			"count":3458,
			"type":"VEC3",
			"min":[-0.081938833,-0.0816859603,-0.101950347
			],
			"max":[0.0763395429,0.0834595561,0.0981762111
			]
		},
		{
			"bufferView":15,
			"componentType":5126,
			"count":3458,
			"type":"VEC3",
			"min":[-0.0832212567,-0.0985181183,-0.102979839
			],
			"max":[0.0873676538,0.0825260878,0.100752056
			]
		},
		{
			"bufferView":16,
			"componentType":5126,
			"count":3458,
			"type":"VEC3",
			"min":[-0.0785241127,-0.0964823663,-0.103111088
			],
			"max":[0.0915789604,0.0807807148,0.113613069
			]
		},
		{
			"bufferView":17,
			"componentType":5126,
			"count":3458,
			"type":"VEC3",
			"min":[-0.0928704143,-0.094851613,-0.0958657265
			],
			"max":[0.0851699114,0.0872946382,0.113339067
			]
		},
		{
			"bufferView":18,
			"componentType":5126,
			"count":3458,
			"type":"VEC3",
			"min":[-0.0925912261,-0.0867597461,-0.0911476761
			],
			"max":[0.0776315928,0.089561522,0.117281973
			]
		},
		{
			"bufferView":19,
			"componentType":5126,
			"count":3458,
			"type":"VEC3",
			"min":[-0.0974747241,-0.0916071534,-0.0953620672
			],
			"max":[0.0769539475,0.0894981921,0.113575041
			]
		},
		{
			"bufferView":20,
			"componentType":5126,
			"count":3458,
			"type":"VEC3",
			"min":[-0.0990647674,-0.0977951139,-0.101420611
			],
			"max":[0.0779791772,0.0834753513,0.110956572
			]
		},
		{
			"bufferView":21,
			"componentType":5126,
			"count":3458,
			"type":"VEC3",
			"min":[-0.100652367,-0.108582862,-0.108273417
			],
			"max":[0.0964308754,0.0850350112,0.117526107
			]
		},
		{
			"bufferView":22,
			"componentType":5126,
			"count":3458,
			"type":"VEC3",
			"min":[-0.1011931,-0.110490568,-0.115418166
			],
			"max":[0.102271743,0.0826308429,0.115525067
			]
		},
		{
			"bufferView":23,
			"componentType":5126,
			"count":3458,
			"type":"VEC3",
			"min":[-0.0900596082,-0.09949518,-0.118367106
			],
			"max":[0.104952119,0.0847348049,0.107080191
			]
		},
		{
			"bufferView":24,
			"componentType":5126,
			"count":3458,
			"type":"VEC3",
			"min":[-0.0880943537,-0.0950164199,-0.126823455
			],
			"max":[0.103659526,0.0847826898,0.0906825662
			]
		},
		{
			"bufferView":25,
			"componentType":5126,
			"count":3458,
			"type":"VEC3",
			"min":[-0.0952116251,-0.0945889056,-0.128811866
			],
			"max":[0.112794913,0.0878497958,0.0890311226
			]
		},
		{
			"bufferView":26,
			"componentType":5126,
			"count":3458,
			"type":"VEC3",
			"min":[-0.0959682763,-0.101911545,-0.119278222
			],
			"max":[0.114178412,0.095259048,0.0870301053
			]
		},
		{
			"bufferView":27,
			"componentType":5126,
			"count":3458,
			"type":"VEC3",
			"min":[-0.0963050127,-0.0984481573,-0.103706092
			],
			"max":[0.114587583,0.0970279574,0.0848810151
			]
		},
		{
			"bufferView":28,
			"componentType":5126,
			"count":3458,
			"type":"VEC3",
			"min":[-0.0998055637,-0.0894290209,-0.102671862
			],
			"max":[0.112249531,0.0965570807,0.0880849287
			]
		},
		{
			"bufferView":29,
			"componentType":5126,
			"count":3458,
			"type":"VEC3",
			"min":[-0.095444575,-0.0901200175,-0.0948911011
			],
			"max":[0.102415353,0.096796453,0.093914412
			]
		},
		{
			"bufferView":30,
			"componentType":5126,
			"count":3458,
			"type":"VEC3",
			"min":[-0.0972102359,-0.0974509716,-0.0857115984
			],
			"max":[0.101447225,0.0978055,0.0963332728
			]
		},
		{
			"bufferView":31,
			"componentType":5126,
			"count":3458,
			"type":"VEC3",
			"min":[-0.0959492326,-0.0989493132,-0.0862064064
			],
			"max":[0.104554594,0.0936965942,0.0918106362
			]
		},
		{
			"bufferView":32,
			"componentType":5126,
			"count":3458,
			"type":"VEC3",
			"min":[-0.098308742,-0.0971660614,-0.0997187942
			],
			"max":[0.108937025,0.0973275602,0.0900695398
			]
		},
		{
			"bufferView":33,
			"componentType":5126,
			"count":3458,
			"type":"VEC3",
			"min":[-0.105030417,-0.107183054,-0.0984150916
			],
			"max":[0.115066916,0.0955897868,0.0891531482
			]
		},
		{
			"bufferView":34,
			"componentType":5126,
			"count":3458,
			"type":"VEC3",
			"min":[-0.111446768,-0.106906474,-0.101989485
			],
			"max":[0.111073405,0.094186306,0.0847788677
			]
		},
		{
			"bufferView":35,
			"componentType":5126,
			"count":3458,
			"type":"VEC3",
			"min":[-0.115491986,-0.106754646,-0.101615578
			],
			"max":[0.110043555,0.0911697745,0.0823793188
			]
		},
		{
			"bufferView":36,
			"componentType":5126,
			"count":3458,
			"type":"VEC3",
			"min":[-0.112683207,-0.108981803,-0.0956449881
			],
			"max":[0.110297292,0.0891062021,0.081749849
			]
		},
		{
			"bufferView":37,
			"componentType":5126,
			"count":3458,
			"type":"VEC3",
			"min":[-0.111815959,-0.11195451,-0.0898653641
			],
			"max":[0.106189519,0.0890489668,0.0795993134
			]
		},
		{
			"bufferView":38,
			"componentType":5126,
			"count":3458,
			"type":"VEC3",
			"min":[-0.110752493,-0.109964356,-0.094537735
			],
			"max":[0.103118628,0.0897567123,0.0759126022
			]
		},
		{
			"bufferView":39,
			"componentType":5126,
			"count":3458,
			"type":"VEC3",
			"min":[-0.108346641,-0.105790213,-0.101800427
			],
			"max":[0.0988219678,0.0893632323,0.074819535
			]
		},
		{
			"bufferView":40,
			"componentType":5126,
			"count":3458,
			"type":"VEC3",
			"min":[-0.107663721,-0.103847265,-0.107460395
			],
			"max":[0.103399865,0.0888417512,0.0798352063
			]
		},
		{
			"bufferView":41,
			"componentType":5126,
			"count":3458,
			"type":"VEC3",
			"min":[-0.107992381,-0.101705819,-0.105922356
			],
			"max":[0.106928326,0.0894556344,0.0802055001
			]
		},
		{
			"bufferView":42,
			"componentType":5126,
			"count":3458,
			"type":"VEC3",
			"min":[-0.107433498,-0.10202302,-0.100725293
			],
			"max":[0.109790914,0.092584759,0.0778982639
			]
		},
		{
			"bufferView":43,
			"componentType":5126,
			"count":3458,
			"type":"VEC3",
			"min":[-0.105943382,-0.100762218,-0.100254983
			],
			"max":[0.11206042,0.0937310159,0.0775388479
			]
		},
		{
			"bufferView":44,
			"componentType":5126,
			"count":3458,
			"type":"VEC3",
			"min":[-0.104349643,-0.10003829,-0.100296885
			],
			"max":[0.11362841,0.0938254297,0.0768139958
			]
		},
		{
			"bufferView":45,
			"componentType":5126,
			"count":3458,
			"type":"VEC3",
			"min":[-0.10321486,-0.100738138,-0.0998449624
			],
			"max":[0.114588045,0.0935679674,0.0755136609
			]
		},
		{
			"bufferView":46,
			"componentType":5126,
			"count":3458,
			"type":"VEC3",
			"min":[-0.102668166,-0.101188496,-0.0995768905
			],
			"max":[0.115119644,0.0931401551,0.0742391944
			]
		},
		{
			"bufferView":47,
			"componentType":5126,
			"count":3458,
			"type":"VEC3",
			"min":[-0.102499306,-0.101394773,-0.100330353
			],
			"max":[0.115378819,0.0927548409,0.073369503
			]
		},
		{
			"bufferView":48,
			"componentType":5126,
			"count":3458,
			"type":"VEC3",
			"min":[-0.102472305,-0.101447672,-0.100519657
			],
			"max":[0.115455531,0.0926018059,0.0730668306
			]
		},
		{
			"bufferView":49,
			"componentType":5126,
			"count":3458,
			"type":"VEC3",
			"min":[-0.102499306,-0.101394773,-0.100330353
			],
			"max":[0.115378819,0.0927548409,0.073369503
			]
		},
		{
			"bufferView":50,
			"componentType":5126,
			"count":3458,
			"type":"VEC3",
			"min":[-0.102668166,-0.101188496,-0.0995768905
			],
			"max":[0.115119644,0.0931401551,0.0742391944
			]
		},
		{
			"bufferView":51,
			"componentType":5126,
			"count":3458,
			"type":"VEC3",
			"min":[-0.10321486,-0.100738138,-0.0998449624
			],
			"max":[0.114588045,0.0935679674,0.0755136609
			]
		},
		{
			"bufferView":52,
			"componentType":5126,
			"count":3458,
			"type":"VEC3",
			"min":[-0.104349643,-0.10003829,-0.100296885
			],
			"max":[0.11362841,0.0938254297,0.0768139958
			]
		},
		{
			"bufferView":53,
			"componentType":5126,
			"count":3458,
			"type":"VEC3",
			"min":[-0.105943382,-0.100762218,-0.100254983
			],
			"max":[0.11206042,0.0937310159,0.0775388479
			]
		},
		{
			"bufferView":54,
			"componentType":5126,
			"count":3458,
			"type":"VEC3",
			"min":[-0.107433498,-0.10202302,-0.100725293
			],
			"max":[0.109790914,0.092584759,0.0778982639
			]
		},
		{
			"bufferView":55,
			"componentType":5126,
			"count":3458,
			"type":"VEC3",
			"min":[-0.107992381,-0.101705819,-0.105922356
			],
			"max":[0.106928326,0.0894556344,0.0802055001
			]
		},
		{
			"bufferView":56,
			"componentType":5126,
			"count":3458,
			"type":"VEC3",
			"min":[-0.107663721,-0.103847265,-0.107460395
			],
			"max":[0.103399865,0.0888417512,0.0798352063
			]
		},
		{
			"bufferView":57,
			"componentType":5126,
			"count":3458,
			"type":"VEC3",
			"min":[-0.108346641,-0.105790213,-0.101800427
			],
			"max":[0.0988219678,0.0893632323,0.074819535
			]
		},
		{
			"bufferView":58,
			"componentType":5126,
			"count":3458,
			"type":"VEC3",
			"min":[-0.110752493,-0.109964356,-0.094537735
			],
			"max":[0.103118628,0.0897567123,0.0759126022
			]
		},
		{
			"bufferView":59,
			"componentType":5126,
			"count":3458,
			"type":"VEC3",
			"min":[-0.111815959,-0.11195451,-0.0898653641
			],
			"max":[0.106189519,0.0890489668,0.0795993134
			]
		},
		{
			"bufferView":60,
			"componentType":5126,
			"count":3458,
			"type":"VEC3",
			"min":[-0.112683207,-0.108981803,-0.0956449881
			],
			"max":[0.110297292,0.0891062021,0.081749849
			]
		},
		{
			"bufferView":61,
			"componentType":5126,
			"count":3458,
			"type":"VEC3",
			"min":[-0.115491986,-0.106754646,-0.101615578
			],
			"max":[0.110043555,0.0911697745,0.0823793188
			]
		},
		{
			"bufferView":62,
			"componentType":5126,
			"count":3458,
			"type":"VEC3",
			"min":[-0.111446768,-0.106906474,-0.101989485
			],
			"max":[0.111073405,0.094186306,0.0847788677
			]
		},
		{
			"bufferView":63,
			"componentType":5126,
			"count":3458,
			"type":"VEC3",
			"min":[-0.105030417,-0.107183054,-0.0984150916
			],
			"max":[0.115066916,0.0955897868,0.0891531482
			]
		},
		{
			"componentType":5126,
			"count":3540,
			"type":"SCALAR",
			"sparse":{
				"count":59,
				"values":{
					"bufferView":65
				},
				"indices":{
					"bufferView":64,
					"componentType":5125
				}
			},
			"min":[0
			],
			"max":[1
			]
		},
		{
			"bufferView":66,
			"componentType":5126,
			"count":60,
			"type":"SCALAR",
			"min":[0
			],
			"max":[2.45833325
			]
		}
	],
	"buffers":[
		{
			"uri":"sea_data.bin",
			"byteLength":2656432,
			"name":"main_buffer"
		}
	],
	"bufferViews":[
		{
			"buffer":0,
			"byteLength":41472,
			"target":34963
		},
		{
			"buffer":0,
			"byteOffset":41472,
			"byteLength":41496,
			"target":34962
		},
		{
			"buffer":0,
			"byteOffset":82968,
			"byteLength":41496,
			"target":34962
		},
		{
			"buffer":0,
			"byteOffset":124464,
			"byteLength":55328,
			"target":34962
		},
		{
			"buffer":0,
			"byteOffset":179792,
			"byteLength":27664,
			"target":34962
		},
		{
			"buffer":0,
			"byteOffset":207456,
			"byteLength":41496,
			"target":34962
		},
		{
			"buffer":0,
			"byteOffset":248952,
			"byteLength":41496,
			"target":34962
		},
		{
			"buffer":0,
			"byteOffset":290448,
			"byteLength":41496,
			"target":34962
		},
		{
			"buffer":0,
			"byteOffset":331944,
			"byteLength":41496,
			"target":34962
		},
		{
			"buffer":0,
			"byteOffset":373440,
			"byteLength":41496,
			"target":34962
		},
		{
			"buffer":0,
			"byteOffset":414936,
			"byteLength":41496,
			"target":34962
		},
		{
			"buffer":0,
			"byteOffset":456432,
			"byteLength":41496,
			"target":34962
		},
		{
			"buffer":0,
			"byteOffset":497928,
			"byteLength":41496,
			"target":34962
		},
		{
			"buffer":0,
			"byteOffset":539424,
			"byteLength":41496,
			"target":34962
		},
		{
			"buffer":0,
			"byteOffset":580920,
			"byteLength":41496,
			"target":34962
		},
		{
			"buffer":0,
			"byteOffset":622416,
			"byteLength":41496,
			"target":34962
		},
		{
			"buffer":0,
			"byteOffset":663912,
			"byteLength":41496,
			"target":34962
		},
		{
			"buffer":0,
			"byteOffset":705408,
			"byteLength":41496,
			"target":34962
		},
		{
			"buffer":0,
			"byteOffset":746904,
			"byteLength":41496,
			"target":34962
		},
		{
			"buffer":0,
			"byteOffset":788400,
			"byteLength":41496,
			"target":34962
		},
		{
			"buffer":0,
			"byteOffset":829896,
			"byteLength":41496,
			"target":34962
		},
		{
			"buffer":0,
			"byteOffset":871392,
			"byteLength":41496,
			"target":34962
		},
		{
			"buffer":0,
			"byteOffset":912888,
			"byteLength":41496,
			"target":34962
		},
		{
			"buffer":0,
			"byteOffset":954384,
			"byteLength":41496,
			"target":34962
		},
		{
			"buffer":0,
			"byteOffset":995880,
			"byteLength":41496,
			"target":34962
		},
		{
			"buffer":0,
			"byteOffset":1037376,
			"byteLength":41496,
			"target":34962
		},
		{
			"buffer":0,
			"byteOffset":1078872,
			"byteLength":41496,
			"target":34962
		},
		{
			"buffer":0,
			"byteOffset":1120368,
			"byteLength":41496,
			"target":34962
		},
		{
			"buffer":0,
			"byteOffset":1161864,
			"byteLength":41496,
			"target":34962
		},
		{
			"buffer":0,
			"byteOffset":1203360,
			"byteLength":41496,
			"target":34962
		},
		{
			"buffer":0,
			"byteOffset":1244856,
			"byteLength":41496,
			"target":34962
		},
		{
			"buffer":0,
			"byteOffset":1286352,
			"byteLength":41496,
			"target":34962
		},
		{
			"buffer":0,
			"byteOffset":1327848,
			"byteLength":41496,
			"target":34962
		},
		{
			"buffer":0,
			"byteOffset":1369344,
			"byteLength":41496,
			"target":34962
		},
		{
			"buffer":0,
			"byteOffset":1410840,
			"byteLength":41496,
			"target":34962
		},
		{
			"buffer":0,
			"byteOffset":1452336,
			"byteLength":41496,
			"target":34962
		},
		{
			"buffer":0,
			"byteOffset":1493832,
			"byteLength":41496,
			"target":34962
		},
		{
			"buffer":0,
			"byteOffset":1535328,
			"byteLength":41496,
			"target":34962
		},
		{
			"buffer":0,
			"byteOffset":1576824,
			"byteLength":41496,
			"target":34962
		},
		{
			"buffer":0,
			"byteOffset":1618320,
			"byteLength":41496,
			"target":34962
		},
		{
			"buffer":0,
			"byteOffset":1659816,
			"byteLength":41496,
			"target":34962
		},
		{
			"buffer":0,
			"byteOffset":1701312,
			"byteLength":41496,
			"target":34962
		},
		{
			"buffer":0,
			"byteOffset":1742808,
			"byteLength":41496,
			"target":34962
		},
		{
			"buffer":0,
			"byteOffset":1784304,
			"byteLength":41496,
			"target":34962
		},
		{
			"buffer":0,
			"byteOffset":1825800,
			"byteLength":41496,
			"target":34962
		},
		{
			"buffer":0,
			"byteOffset":1867296,
			"byteLength":41496,
			"target":34962
		},
		{
			"buffer":0,
			"byteOffset":1908792,
			"byteLength":41496,
			"target":34962
		},
		{
			"buffer":0,
			"byteOffset":1950288,
			"byteLength":41496,
			"target":34962
		},
		{
			"buffer":0,
			"byteOffset":1991784,
			"byteLength":41496,
			"target":34962
		},
		{
			"buffer":0,
			"byteOffset":2033280,
			"byteLength":41496,
			"target":34962
		},
		{
			"buffer":0,
			"byteOffset":2074776,
			"byteLength":41496,
			"target":34962
		},
		{
			"buffer":0,
			"byteOffset":2116272,
			"byteLength":41496,
			"target":34962
		},
		{
			"buffer":0,
			"byteOffset":2157768,
			"byteLength":41496,
			"target":34962
		},
		{
			"buffer":0,
			"byteOffset":2199264,
			"byteLength":41496,
			"target":34962
		},
		{
			"buffer":0,
			"byteOffset":2240760,
			"byteLength":41496,
			"target":34962
		},
		{
			"buffer":0,
			"byteOffset":2282256,
			"byteLength":41496,
			"target":34962
		},
		{
			"buffer":0,
			"byteOffset":2323752,
			"byteLength":41496,
			"target":34962
		},
		{
			"buffer":0,
			"byteOffset":2365248,
			"byteLength":41496,
			"target":34962
		},
		{
			"buffer":0,
			"byteOffset":2406744,
			"byteLength":41496,
			"target":34962
		},
		{
			"buffer":0,
			"byteOffset":2448240,
			"byteLength":41496,
			"target":34962
		},
		{
			"buffer":0,
			"byteOffset":2489736,
			"byteLength":41496,
			"target":34962
		},
		{
			"buffer":0,
			"byteOffset":2531232,
			"byteLength":41496,
			"target":34962
		},
		{
			"buffer":0,
			"byteOffset":2572728,
			"byteLength":41496,
			"target":34962
		},
		{
			"buffer":0,
			"byteOffset":2614224,
			"byteLength":41496,
			"target":34962
		},
		{
			"buffer":0,
			"byteOffset":2655720,
			"byteLength":236
		},
		{
			"buffer":0,
			"byteOffset":2655956,
			"byteLength":236
		},
		{
			"buffer":0,
			"byteOffset":2656192,
			"byteLength":240
		}
	],
	"nodes":[
		{
			"name":"geo9",
			"mesh":0
		}
	],
	"meshes":[
		{
			"primitives":[
				{
					"attributes":{
						"TEXCOORD_0":4,
						"TANGENT":3,
						"POSITION":1,
						"NORMAL":2
					},
					"indices":0,
					"targets":[
						{
							"POSITION":5
						},
						{
							"POSITION":6
						},
						{
							"POSITION":7
						},
						{
							"POSITION":8
						},
						{
							"POSITION":9
						},
						{
							"POSITION":10
						},
						{
							"POSITION":11
						},
						{
							"POSITION":12
						},
						{
							"POSITION":13
						},
						{
							"POSITION":14
						},
						{
							"POSITION":15
						},
						{
							"POSITION":16
						},
						{
							"POSITION":17
						},
						{
							"POSITION":18
						},
						{
							"POSITION":19
						},
						{
							"POSITION":20
						},
						{
							"POSITION":21
						},
						{
							"POSITION":22
						},
						{
							"POSITION":23
						},
						{
							"POSITION":24
						},
						{
							"POSITION":25
						},
						{
							"POSITION":26
						},
						{
							"POSITION":27
						},
						{
							"POSITION":28
						},
						{
							"POSITION":29
						},
						{
							"POSITION":30
						},
						{
							"POSITION":31
						},
						{
							"POSITION":32
						},
						{
							"POSITION":33
						},
						{
							"POSITION":34
						},
						{
							"POSITION":35
						},
						{
							"POSITION":36
						},
						{
							"POSITION":37
						},
						{
							"POSITION":38
						},
						{
							"POSITION":39
						},
						{
							"POSITION":40
						},
						{
							"POSITION":41
						},
						{
							"POSITION":42
						},
						{
							"POSITION":43
						},
						{
							"POSITION":44
						},
						{
							"POSITION":45
						},
						{
							"POSITION":46
						},
						{
							"POSITION":47
						},
						{
							"POSITION":48
						},
						{
							"POSITION":49
						},
						{
							"POSITION":50
						},
						{
							"POSITION":51
						},
						{
							"POSITION":52
						},
						{
							"POSITION":53
						},
						{
							"POSITION":54
						},
						{
							"POSITION":55
						},
						{
							"POSITION":56
						},
						{
							"POSITION":57
						},
						{
							"POSITION":58
						},
						{
							"POSITION":59
						},
						{
							"POSITION":60
						},
						{
							"POSITION":61
						},
						{
							"POSITION":62
						},
						{
							"POSITION":63
						}
					]
				}
			],
			"name":"attribnoise1",
			"extras":{
				"targetNames":["","","","","","","","","","","","","","","","","","","","","","","","","","","","","","","","","","","","","","","","","","","","","","","","","","","","","","","","","","",""
				]
			}
		}
	],
	"scenes":[
		{
			"nodes":[0
			]
		}
	],
	"scene":0
}
